<svg version="1.1" id="Layer_1" xmlns="http://www.w3.org/2000/svg" xmlns:xlink="http://www.w3.org/1999/xlink" x="0px" y="0px"
	 width="100%" viewBox="0 0 105 600" enable-background="new 0 0 105 600" xml:space="preserve">
<path fill="#FDFDFD" opacity="1.000000" stroke="none" 
	d="
M1.000000,253.000000 
	C1.000000,168.666672 1.000000,84.833336 1.000000,1.000000 
	C36.000000,1.000000 71.000000,1.000000 106.000000,1.000000 
	C106.000000,201.000000 106.000000,401.000000 106.000000,601.000000 
	C71.000000,601.000000 36.000000,601.000000 1.000000,601.000000 
	C1.000000,485.166656 1.000000,369.333344 1.000000,253.000000 
M71.108063,352.272858 
	C71.192612,352.322510 71.277161,352.372162 71.361725,352.421783 
	C71.239777,352.282227 71.117836,352.142700 70.989052,351.295166 
	C70.058563,350.190948 69.128075,349.086731 67.979416,347.364929 
	C67.583412,344.934479 67.187401,342.504028 67.426483,339.975464 
	C67.778435,339.539001 68.130394,339.102570 68.482346,338.666107 
	C67.728065,338.437744 66.973793,338.209381 65.922943,337.305908 
	C65.779976,336.583862 65.637009,335.861786 66.083618,334.901184 
	C65.717590,334.267944 65.351570,333.634674 64.574913,332.405853 
	C63.677250,329.940125 62.779587,327.474426 61.931705,324.409973 
	C61.519680,323.518738 61.107655,322.627472 60.645561,320.988007 
	C59.341312,318.271240 58.037067,315.554443 56.603607,312.080780 
	C51.157215,300.306641 47.199306,288.255798 50.075985,274.399933 
	C50.153336,273.938477 50.230686,273.477020 50.786579,272.652588 
	C51.272736,271.788147 51.758888,270.923676 52.787258,270.389038 
	C53.960999,271.123260 55.134743,271.857452 57.016827,273.034760 
	C57.016827,269.561005 57.016827,266.933167 57.466511,263.778992 
	C62.869991,259.209930 69.492371,259.273743 76.647156,259.174500 
	C79.026421,258.756226 81.405685,258.337952 84.352638,258.242645 
	C87.383911,260.393036 89.288742,259.225525 88.806068,255.921753 
	C88.505745,253.866135 86.722878,251.394043 84.906876,250.443939 
	C83.908997,249.921875 81.463615,252.166550 79.007591,253.122330 
	C78.347084,253.058319 77.686584,252.994324 76.737389,252.338882 
	C76.188408,252.000259 75.639427,251.661621 75.918900,251.054306 
	C77.539917,248.103668 79.160934,245.153015 81.061958,241.692688 
	C79.071808,241.368301 78.009102,241.195084 76.301125,240.938339 
	C75.872559,240.930939 75.444000,240.923538 74.544022,240.545349 
	C74.382210,240.427963 74.220390,240.310562 73.883881,239.666550 
	C73.883881,237.759415 73.883881,235.852280 73.883881,233.653046 
	C73.245811,233.500198 71.930115,233.185013 70.737053,232.333420 
	C70.917656,230.896286 71.098251,229.459152 71.930733,227.925430 
	C72.470856,227.249756 73.010979,226.574081 73.551102,225.898392 
	C72.890549,225.569122 72.229996,225.239853 71.396301,224.228516 
	C71.398888,222.829498 71.401482,221.430496 72.022972,219.929398 
	C75.013611,217.812515 73.975349,216.675232 70.862572,215.361404 
	C70.864136,214.922180 70.865700,214.482971 71.630493,214.013031 
	C75.986412,214.259171 74.500168,211.724838 73.568710,209.705856 
	C72.500305,207.390015 71.388290,205.034882 69.878761,203.006821 
	C69.114525,201.980057 67.433235,201.635880 65.723457,200.438660 
	C51.289555,178.382355 45.363899,154.440811 49.383305,127.668777 
	C51.864834,128.364777 53.868549,129.065155 55.930626,129.463303 
	C57.727848,129.810303 59.590904,129.816345 61.424873,129.973022 
	C61.028347,128.227127 60.816494,126.411888 60.192844,124.751297 
	C59.209904,122.134010 57.950180,119.620667 57.427555,116.585236 
	C57.570843,114.819061 58.148315,112.935310 57.712536,111.325935 
	C57.395119,110.153671 56.406754,107.448769 53.777737,109.271530 
	C52.669621,102.557365 51.561504,95.843193 50.644096,88.320786 
	C50.556118,87.503693 50.468140,86.686600 50.666878,85.223312 
	C50.571247,84.536934 50.475616,83.850563 50.629375,82.663261 
	C50.559757,82.118248 50.490139,81.573242 50.718510,80.175552 
	C50.647617,77.776398 50.576725,75.377235 50.716988,72.159126 
	C50.648827,69.695221 50.580669,67.231316 50.744991,64.137421 
	C50.672226,63.479042 50.599461,62.820660 50.734482,61.227623 
	C50.716530,57.076023 50.698578,52.924419 50.884056,47.934158 
	C50.824333,45.349342 50.764606,42.764530 50.869480,39.329674 
	C50.819386,34.209351 50.769291,29.089031 50.925861,23.240080 
	C49.391769,20.527950 47.857677,17.815819 46.271423,15.011468 
	C41.283325,17.870687 39.366859,21.019777 39.415741,25.983932 
	C39.613411,46.057728 39.886776,66.150429 39.198761,86.204117 
	C38.902588,94.836845 36.331638,103.391533 34.015430,111.980324 
	C29.453457,111.239799 28.539919,115.228058 27.496777,117.895760 
	C26.875896,119.483566 28.643682,122.005409 29.091671,124.760139 
	C28.651917,126.395241 28.212160,128.030350 27.772404,129.665451 
	C29.462286,129.600067 31.174585,129.681763 32.835827,129.428513 
	C34.544022,129.168121 36.202389,128.580887 37.684658,128.189011 
	C38.256958,146.429672 38.811802,164.114075 39.377148,182.133072 
	C37.345501,182.018478 35.033161,181.686844 32.754944,181.845398 
	C31.634453,181.923401 30.318071,182.703461 29.618467,183.584976 
	C29.337744,183.938690 30.265699,185.640717 31.008904,186.341660 
	C32.891827,188.117523 34.981579,189.674088 37.544678,191.774185 
	C34.140682,193.619934 31.222279,194.870590 28.720396,196.693069 
	C27.385939,197.665131 26.771122,199.625137 25.831505,201.139221 
	C27.546663,201.550980 29.253126,202.265076 30.978699,202.314713 
	C35.226723,202.436890 39.779984,201.243698 43.679546,202.388336 
	C54.119503,205.452759 59.337170,213.035507 59.238369,224.719849 
	C59.242973,225.481033 59.247578,226.242218 59.013882,227.726120 
	C57.086224,231.904694 55.035954,236.031754 53.254494,240.271744 
	C48.406174,251.811050 43.671535,263.398132 38.438389,275.439880 
	C38.324036,276.293518 38.209682,277.147186 37.794563,278.713348 
	C37.498398,281.821808 37.202232,284.930237 36.648113,288.801392 
	C36.733036,289.856415 36.817959,290.911407 36.619164,292.316925 
	C36.732021,292.882721 36.844883,293.448547 36.740906,294.853638 
	C36.918499,296.570190 37.096092,298.286774 37.178116,300.794678 
	C38.240421,305.352661 39.302731,309.910675 40.408318,314.654358 
	C32.518585,314.654358 25.241566,314.654358 17.964544,314.654358 
	C17.753387,315.128571 17.542231,315.602814 17.331074,316.077026 
	C19.489599,318.209656 21.648125,320.342316 23.836546,322.830017 
	C23.836546,322.830017 24.149935,322.999603 24.281487,323.616089 
	C22.831841,325.401459 21.382195,327.186829 19.436405,328.970184 
	C19.087090,329.105255 18.901781,329.359741 18.235186,329.893250 
	C17.174500,330.659668 16.113815,331.426086 14.425136,332.397797 
	C12.653049,333.716278 10.880962,335.034760 8.588202,336.547913 
	C8.235256,336.965118 7.882310,337.382355 6.980597,338.099274 
	C4.812002,342.354401 7.861858,341.251648 10.867275,341.225220 
	C13.779446,341.535675 16.691616,341.846130 19.477554,342.701996 
	C19.475527,343.071472 19.473501,343.440979 19.073092,344.556580 
	C19.741030,349.695892 20.408968,354.835236 21.144087,360.654266 
	C23.668467,363.351501 26.192844,366.048737 28.020336,369.058350 
	C26.682438,372.902954 28.490808,375.295471 31.792290,377.858826 
	C29.074457,389.527161 26.356625,401.195465 23.158072,413.310364 
	C22.397236,415.128754 21.636400,416.947144 20.322298,419.188843 
	C16.998697,424.699646 13.664339,430.204041 10.356962,435.724548 
	C9.092908,437.834473 7.890610,439.981384 6.207601,442.237793 
	C6.377213,442.260803 6.546825,442.283783 7.312056,441.917664 
	C9.537717,441.984772 11.763379,442.051880 14.000438,442.767914 
	C13.731426,444.423981 13.462416,446.080078 13.145158,448.033173 
	C14.439568,448.306061 16.123764,448.661163 17.868996,449.701019 
	C17.559664,450.793732 17.250332,451.886444 16.207193,453.158264 
	C16.156496,455.443878 16.105799,457.729492 16.210245,460.861542 
	C16.175999,462.577698 16.141754,464.293823 15.379607,466.018768 
	C14.773254,466.362701 14.166903,466.706665 13.560547,467.050659 
	C14.529836,467.335083 15.499125,467.619507 16.724846,468.235077 
	C16.744007,468.527649 16.858292,468.776550 16.945457,469.647705 
	C16.925325,470.096527 16.905193,470.545380 16.181549,471.009430 
	C15.536633,471.689178 14.891715,472.368927 14.246810,473.048706 
	C15.247722,472.995239 16.248632,472.941772 17.704266,473.390869 
	C18.430349,475.276550 19.156433,477.162231 19.916348,479.779022 
	C22.119516,483.288849 24.322687,486.798645 26.658470,490.369568 
	C26.658470,490.369568 26.728952,490.497467 26.336514,491.125275 
	C28.404388,493.533966 30.472261,495.942657 33.333729,499.275726 
	C27.374304,499.275726 22.533310,499.275726 16.899096,499.180878 
	C16.118185,501.465210 15.337275,503.749573 14.556364,506.033905 
	C13.817996,505.132050 13.079628,504.230164 12.341260,503.328308 
	C14.000363,505.673615 15.659467,508.018921 17.800974,511.046173 
	C17.943666,509.339386 18.010345,508.541840 18.729473,507.721222 
	C19.445164,508.128510 20.160854,508.535797 21.522196,509.091461 
	C22.539215,508.997131 23.556236,508.902802 25.123959,507.928894 
	C27.393181,508.203461 29.662403,508.478027 31.166224,508.956482 
	C29.694309,509.575562 28.222395,510.194641 27.169949,510.637299 
	C26.953541,512.960449 26.779825,514.825317 25.937820,516.941406 
	C24.399599,518.621887 22.807865,520.256775 21.331860,521.990295 
	C11.506917,533.529114 8.382127,546.330811 13.809038,561.437256 
	C13.163668,562.993591 12.518296,564.549866 11.726856,566.458435 
	C14.415088,566.640198 16.327015,566.769531 18.681843,567.035583 
	C18.937786,567.248596 19.063704,567.521606 19.021704,568.625854 
	C18.973137,573.108643 19.602730,576.778625 25.649698,576.278870 
	C26.640646,576.196899 27.846546,578.715637 28.633841,579.652466 
	C30.850428,580.107422 32.989716,580.546509 35.423771,581.046082 
	C34.430054,582.109253 33.914024,582.661377 33.398010,583.213501 
	C36.344833,583.761963 39.291656,584.310425 42.009827,584.816345 
	C44.389252,581.136414 46.581436,578.578369 50.620796,582.436401 
	C51.407162,583.187500 53.139542,582.948120 54.435581,583.165527 
	C54.435581,582.191833 54.435581,581.218140 54.435581,579.953308 
	C55.120678,579.953308 57.217232,580.047180 57.227592,579.939819 
	C57.675255,575.300171 61.655186,577.666443 63.819942,576.568970 
	C66.371628,575.275208 68.205612,573.890991 65.925201,570.412720 
	C67.196373,569.059631 68.467545,567.706543 70.051315,567.043823 
	C71.346359,567.477234 72.641403,567.910583 73.936447,568.343994 
	C74.100243,567.134949 74.423866,565.922607 74.399101,564.717468 
	C74.310318,560.396301 76.725639,556.745483 79.926910,556.537048 
	C79.926910,549.447998 79.926910,542.374146 79.926910,534.761536 
	C79.919250,534.758423 78.952003,534.297852 77.941216,533.972595 
	C76.728653,533.582397 75.478935,533.307678 73.903618,532.540466 
	C73.703087,532.030823 73.502556,531.521118 73.978142,530.831360 
	C75.461929,526.348938 72.511086,522.601440 67.033340,522.190918 
	C67.033340,522.190918 67.010544,521.913269 67.030136,521.123535 
	C66.531860,519.694580 66.403816,517.377869 65.471725,516.989136 
	C61.265789,515.235046 60.771347,511.572906 60.897663,507.772522 
	C64.748795,507.822052 68.599930,507.871552 72.888969,508.307007 
	C73.273811,508.343414 73.658661,508.379852 74.043510,508.416260 
	C73.528412,508.230865 73.013313,508.045502 71.997810,507.221375 
	C72.136070,506.988922 72.274330,506.756439 73.003815,506.743561 
	C73.343437,506.646576 73.683067,506.549591 74.022697,506.452606 
	C73.484573,506.408813 72.946442,506.365021 71.086311,505.634460 
	C71.067497,505.138245 71.048683,504.642029 71.997231,504.595154 
	C76.485519,505.007965 74.481651,501.617401 74.897537,499.644440 
	C73.455391,499.489960 72.013245,499.335449 69.698814,499.145325 
	C65.800957,499.079681 61.903107,499.014038 58.159286,498.217163 
	C59.303570,497.779144 60.838043,497.659302 61.509563,496.835785 
	C62.840733,495.203400 63.849297,493.242340 64.614845,491.270966 
	C64.763924,490.887115 63.202312,489.838898 62.780163,488.466858 
	C64.126900,486.800629 65.473633,485.134430 67.115479,484.136841 
	C68.181503,485.044250 69.247536,485.951660 70.370872,486.907837 
	C74.105972,480.717621 73.991875,478.129852 70.005745,474.251404 
	C70.066803,473.504852 70.127861,472.758270 70.845963,471.887787 
	C71.132027,470.055603 71.630569,468.224304 71.637939,466.390991 
	C71.643990,464.882019 70.498360,463.220459 70.850380,461.887146 
	C72.186150,456.827698 73.923050,451.874176 75.762024,446.087952 
	C73.345566,446.560120 72.249214,446.774323 70.935966,446.442261 
	C70.912621,446.054565 70.889275,445.666840 71.176147,444.599457 
	C71.804596,442.292877 72.433044,439.986298 73.063477,437.672455 
	C73.623711,437.834991 74.553474,438.104767 76.226601,438.590179 
	C75.237373,436.533173 74.631966,435.274292 73.775841,433.494049 
	C71.709457,434.936279 70.061943,436.086151 68.185532,437.395782 
	C67.187622,433.491486 66.247391,429.812866 65.595909,425.640747 
	C66.500961,424.651855 67.406013,423.662933 68.820122,422.901459 
	C70.747253,425.279083 73.205582,425.414825 74.337601,422.761597 
	C75.133507,420.896179 74.155952,418.274017 73.991936,415.492584 
	C73.991936,415.492584 74.018532,414.995636 74.480133,414.614258 
	C74.019150,413.854645 73.558159,413.095032 73.097160,412.335419 
	C72.714737,413.066711 72.332314,413.797974 71.164558,414.731781 
	C70.092819,414.865570 69.021080,414.999390 68.120667,415.017151 
	C68.120667,415.017151 68.071159,414.816254 67.981728,414.205750 
	C68.612373,413.128876 69.049355,411.852936 69.911598,411.014130 
	C72.098404,408.886810 73.836540,406.851715 71.213463,403.363678 
	C72.830132,400.903656 74.446800,398.443604 76.477623,395.686707 
	C76.312500,395.255310 76.147377,394.823944 75.982254,394.392548 
	C75.632553,394.796631 75.282852,395.200745 74.208641,395.765015 
	C72.493904,395.729095 70.779175,395.693176 68.921448,394.941101 
	C68.234077,394.283966 67.546707,393.626831 66.867638,392.132111 
	C67.552864,386.422333 68.238091,380.712524 69.147568,374.188385 
	C69.122040,372.793121 69.096512,371.397888 69.304108,369.137573 
	C69.174377,366.759552 69.044647,364.381500 69.102234,361.113251 
	C69.010681,358.089905 68.919128,355.066559 69.552422,352.014282 
	C70.035995,352.008179 70.519562,352.002106 71.108063,352.272858 
M67.842300,510.266052 
	C68.202675,511.046906 68.563057,511.827789 68.923454,512.608643 
	C69.579552,511.761017 70.235649,510.913391 71.437149,509.361145 
	C69.669319,509.766235 69.051292,509.907837 67.842300,510.266052 
M54.178463,104.027977 
	C54.273582,104.436073 54.368698,104.844177 54.463818,105.252281 
	C54.584553,105.162392 54.817368,105.057159 54.807510,104.985130 
	C54.750816,104.570732 54.636662,104.164185 54.178463,104.027977 
M7.810516,444.740997 
	C7.971147,444.624329 8.131777,444.507690 8.292412,444.391052 
	C8.068374,444.415009 7.844335,444.438965 7.810516,444.740997 
M73.517235,201.411621 
	C73.517235,201.411621 73.584572,201.524628 73.517235,201.411621 
M78.473358,396.566620 
	C78.473358,396.566620 78.419746,396.477570 78.473358,396.566620 
z"/>
<path fill="#121413" opacity="1.000000" stroke="none" 
	d="
M50.505829,72.978081 
	C50.576725,75.377235 50.647617,77.776398 50.308502,80.696365 
	C50.058994,81.866173 50.219490,82.515182 50.379986,83.164185 
	C50.475616,83.850563 50.571247,84.536934 50.207779,85.734131 
	C49.983582,87.206314 50.218483,88.167671 50.453384,89.129028 
	C51.561504,95.843193 52.669621,102.557365 53.931381,109.981277 
	C54.992558,112.815132 55.900093,114.939224 56.807629,117.063324 
	C57.950180,119.620667 59.209904,122.134010 60.192844,124.751297 
	C60.816494,126.411888 61.028347,128.227127 61.424873,129.973022 
	C59.590904,129.816345 57.727848,129.810303 55.930626,129.463303 
	C53.868549,129.065155 51.864834,128.364777 49.383305,127.668777 
	C45.363899,154.440811 51.289555,178.382355 65.970871,201.067932 
	C67.767944,205.812714 69.317612,209.928238 70.867271,214.043747 
	C70.865700,214.482971 70.864136,214.922180 70.894287,216.081116 
	C71.085365,217.877701 71.244720,218.954590 71.404076,220.031479 
	C71.401482,221.430496 71.398888,222.829498 71.319366,224.846939 
	C71.254578,226.317581 71.266716,227.169800 71.278854,228.022018 
	C71.098251,229.459152 70.917656,230.896286 70.600624,232.540955 
	C70.331329,232.903107 70.179398,232.993149 69.784012,232.749985 
	C68.504654,232.481400 67.449684,232.481400 66.394714,232.481400 
	C66.346695,232.936920 66.298676,233.392441 66.250656,233.847961 
	C67.373360,234.283142 68.496071,234.718323 69.600677,235.552032 
	C67.870682,240.744934 71.079544,240.347809 74.058571,240.193161 
	C74.220390,240.310562 74.382210,240.427963 74.637985,240.981995 
	C75.319183,242.339905 75.906425,243.261154 76.338318,244.505127 
	C75.263985,245.930817 73.916451,246.917801 73.575584,248.177231 
	C73.345612,249.026917 74.535629,250.260910 75.090446,251.322998 
	C75.639427,251.661621 76.188408,252.000259 76.836021,253.013260 
	C76.623222,255.426010 76.311783,257.164398 76.000351,258.902771 
	C69.492371,259.273743 62.869991,259.209930 57.102982,263.997955 
	C56.739456,264.216919 56.455044,264.154816 56.078506,264.118896 
	C53.552807,264.068176 52.296600,264.617859 53.810844,267.254150 
	C53.242065,268.383057 52.743553,269.221161 52.245041,270.059235 
	C51.758888,270.923676 51.272736,271.788147 50.190399,272.832642 
	C48.899643,273.285919 48.205059,273.559143 47.510483,273.832367 
	C48.243855,274.222351 48.977226,274.612335 49.710598,275.002319 
	C47.199306,288.255798 51.157215,300.306641 56.262970,312.481384 
	C54.614944,312.587982 53.307549,312.293976 51.987198,311.761169 
	C51.857674,311.248749 51.741104,310.975159 51.624538,310.701569 
	C51.501595,310.787720 51.378647,310.873840 51.255692,310.959961 
	C51.503742,311.306641 51.751797,311.653320 52.036629,312.357147 
	C52.278584,315.620697 52.483749,318.527130 52.688919,321.433533 
	C52.268593,321.498260 51.848267,321.562958 51.427944,321.627655 
	C53.022675,323.477661 54.617405,325.327637 55.916168,326.834290 
	C54.406532,329.615997 53.180092,331.875885 51.544697,334.070740 
	C44.208584,332.132874 37.342751,330.805756 31.149986,335.940460 
	C30.634315,335.274841 30.205681,334.910767 29.777046,334.546692 
	C29.622477,334.787415 29.467907,335.028137 29.313339,335.268860 
	C29.959202,335.589539 30.605064,335.910217 31.125113,336.550232 
	C25.359095,342.897644 25.386831,349.713257 27.936169,357.080688 
	C27.438736,357.829468 27.218912,358.415344 26.740389,359.109375 
	C25.987349,359.479584 25.493008,359.741638 24.995077,359.647827 
	C24.621157,358.170410 24.250824,357.048859 23.880493,355.927307 
	C23.587173,356.011230 23.293854,356.095154 23.000534,356.179077 
	C23.000534,357.453125 23.000534,358.727173 22.679895,359.999695 
	C21.931807,359.990295 21.504356,359.982422 21.076904,359.974548 
	C20.408968,354.835236 19.741030,349.695892 19.615547,344.205414 
	C20.576162,343.550018 20.994326,343.245789 21.412495,342.941589 
	C20.809601,342.679901 20.206699,342.418243 19.603792,342.156555 
	C16.691616,341.846130 13.779446,341.535675 10.302605,340.819092 
	C9.001746,339.541840 8.265558,338.670715 7.529366,337.799561 
	C7.882310,337.382355 8.235256,336.965118 9.265796,336.628235 
	C11.299696,336.466675 12.656001,336.224792 14.240161,335.977600 
	C14.644775,335.650513 14.821537,335.328766 14.999125,334.655090 
	C15.017680,333.599609 15.035410,332.896088 15.053133,332.192535 
	C16.113815,331.426086 17.174500,330.659668 18.698284,330.064697 
	C19.574591,330.315521 19.987801,330.394867 20.401012,330.474182 
	C20.244856,329.973511 20.088701,329.472870 19.932549,328.972198 
	C21.382195,327.186829 22.831841,325.401459 24.524002,323.309021 
	C25.177578,323.001312 25.588636,323.000641 26.001049,323.295898 
	C26.097162,324.095184 26.191921,324.598572 26.286680,325.101959 
	C26.523663,325.023773 26.760645,324.945587 26.997629,324.867401 
	C26.665173,324.244934 26.332716,323.622467 25.971355,322.679199 
	C25.455645,321.825867 24.968836,321.293304 24.482029,320.760773 
	C24.256905,321.332153 24.031778,321.903564 23.806652,322.474945 
	C21.648125,320.342316 19.489599,318.209656 17.331074,316.077026 
	C17.542231,315.602814 17.753387,315.128571 17.964544,314.654358 
	C25.241566,314.654358 32.518585,314.654358 40.408318,314.654358 
	C39.302731,309.910675 38.240421,305.352661 37.594414,300.382629 
	C41.709633,297.269196 40.877663,295.368805 36.957741,294.014343 
	C36.844883,293.448547 36.732021,292.882721 37.129440,292.112305 
	C41.280663,290.420227 40.011948,288.154877 38.738235,285.667847 
	C38.028278,286.586548 37.467175,287.312622 36.906067,288.038696 
	C37.202232,284.930237 37.498398,281.821808 38.303497,278.347961 
	C39.489399,277.500305 40.166359,277.018005 40.843315,276.535675 
	C40.192822,276.012543 39.542332,275.489410 38.891846,274.966278 
	C43.671535,263.398132 48.406174,251.811050 53.254494,240.271744 
	C55.035954,236.031754 57.086224,231.904694 59.473789,227.354797 
	C60.565060,226.410965 61.196426,225.838455 61.827789,225.265961 
	C61.042526,224.840714 60.257267,224.415482 59.472012,223.990234 
	C59.337170,213.035507 54.119503,205.452759 43.679546,202.388336 
	C39.779984,201.243698 35.226723,202.436890 30.978699,202.314713 
	C29.253126,202.265076 27.546663,201.550980 25.831501,201.139221 
	C26.771122,199.625137 27.385939,197.665131 28.720396,196.693069 
	C31.222279,194.870590 34.140682,193.619934 37.544678,191.774185 
	C34.981579,189.674088 32.891827,188.117523 31.008904,186.341660 
	C30.265699,185.640717 29.337744,183.938690 29.618467,183.584976 
	C30.318071,182.703461 31.634453,181.923401 32.754944,181.845398 
	C35.033161,181.686844 37.345501,182.018478 39.377148,182.133072 
	C38.811802,164.114075 38.256958,146.429672 37.684658,128.189011 
	C36.202389,128.580887 34.544022,129.168121 32.835827,129.428513 
	C31.174585,129.681763 29.462286,129.600067 27.772404,129.665451 
	C28.212160,128.030350 28.651917,126.395241 29.477079,124.226791 
	C31.506371,119.789520 33.150253,115.885597 34.794136,111.981674 
	C36.331638,103.391533 38.902588,94.836845 39.198761,86.204117 
	C39.886776,66.150429 39.613411,46.057728 39.415741,25.983932 
	C39.366859,21.019777 41.283325,17.870687 46.271423,15.011468 
	C47.857677,17.815819 49.391769,20.527950 50.596138,23.415380 
	C50.024509,23.372755 49.794559,23.138084 49.531235,22.950186 
	C49.474510,22.909712 49.191719,23.036049 49.190742,23.088831 
	C49.114563,27.208099 48.893948,31.334949 49.077744,35.443626 
	C49.149311,37.043385 50.135376,38.602230 50.704880,40.179714 
	C50.764606,42.764530 50.824333,45.349342 50.383720,48.581600 
	C50.097824,53.540123 50.312260,57.851200 50.526695,62.162281 
	C50.599461,62.820660 50.672226,63.479042 50.278030,64.682022 
	C50.042656,67.810448 50.274246,70.394264 50.505829,72.978081 
M44.987400,285.550476 
	C44.704380,286.827942 44.421364,288.105408 44.138344,289.382874 
	C44.789330,289.508545 45.440311,289.634216 46.091297,289.759888 
	C46.488823,287.214783 46.886349,284.669647 47.283878,282.124542 
	C46.993862,282.040466 46.703846,281.956390 46.413830,281.872314 
	C45.994652,282.864197 45.575474,283.856079 44.987400,285.550476 
M70.645546,250.696228 
	C69.936218,250.348999 69.226891,250.001755 68.517570,249.654510 
	C68.429878,250.090302 68.342178,250.526108 68.254486,250.961899 
	C69.016548,251.087463 69.778603,251.213028 70.645546,250.696228 
M41.478489,317.686920 
	C42.023216,318.024445 42.567944,318.362000 43.112667,318.699524 
	C43.247009,318.426270 43.381355,318.153046 43.515709,317.879791 
	C42.982128,317.675262 42.448547,317.470734 41.478489,317.686920 
M49.705662,269.563751 
	C49.989254,269.293182 50.272846,269.022614 50.556423,268.752045 
	C50.444225,268.634735 50.240677,268.409180 50.233013,268.415680 
	C49.933929,268.668121 49.652729,268.941772 49.705662,269.563751 
M24.528917,348.760895 
	C24.402599,349.148712 24.255259,349.531921 24.167698,349.928284 
	C24.150173,350.007629 24.360411,350.137299 24.465624,350.243774 
	C24.591549,349.856079 24.717474,349.468414 24.528917,348.760895 
M63.468575,224.233368 
	C63.595642,223.846588 63.743534,223.464462 63.832005,223.069046 
	C63.849476,222.990967 63.638199,222.861694 63.532402,222.756027 
	C63.405552,223.142761 63.278702,223.529510 63.468575,224.233368 
M39.750946,329.827332 
	C39.586441,329.881744 39.421932,329.936188 39.257431,329.990570 
	C39.422813,330.043762 39.588196,330.096924 39.750946,329.827332 
M28.827480,319.248962 
	C28.881941,319.413513 28.936403,319.578064 28.990871,319.742615 
	C29.044085,319.577118 29.097296,319.411591 28.827480,319.248962 
M55.525314,239.634384 
	C55.471504,239.843048 55.417694,240.051727 55.363884,240.260391 
	C55.495899,240.126358 55.627914,239.992310 55.525314,239.634384 
M47.475372,266.365509 
	C47.529186,266.156982 47.582996,265.948425 47.636818,265.739899 
	C47.504791,265.873871 47.372765,266.007843 47.475372,266.365509 
M72.414406,253.483215 
	C72.414406,253.483215 72.523041,253.418976 72.414406,253.483215 
M50.414219,302.483246 
	C50.414219,302.483246 50.522545,302.418945 50.414219,302.483246 
M47.585449,291.516602 
	C47.585449,291.516602 47.476871,291.581055 47.585449,291.516602 
M22.514357,340.415802 
	C22.514357,340.415802 22.577833,340.523865 22.514357,340.415802 
M56.413982,242.483170 
	C56.413982,242.483170 56.522335,242.418930 56.413982,242.483170 
M33.414162,318.483521 
	C33.414162,318.483521 33.522976,318.419098 33.414162,318.483521 
M67.586357,240.516953 
	C67.586357,240.516953 67.477486,240.581375 67.586357,240.516953 
M57.483288,239.585052 
	C57.483288,239.585052 57.419277,239.476715 57.483288,239.585052 
z"/>
<path fill="#1A1B19" opacity="1.000000" stroke="none" 
	d="
M14.107398,560.773376 
	C8.382127,546.330811 11.506917,533.529114 21.331860,521.990295 
	C22.807865,520.256775 24.399599,518.621887 26.582884,516.682373 
	C29.236917,514.136963 34.747803,513.997864 31.931625,508.752625 
	C29.662403,508.478027 27.393181,508.203461 24.898912,508.054840 
	C23.408092,508.434875 22.142321,508.688965 20.876547,508.943085 
	C20.160854,508.535797 19.445164,508.128510 18.245792,507.382385 
	C17.738844,504.454285 17.715580,501.865021 17.692316,499.275726 
	C22.533310,499.275726 27.374304,499.275726 33.333729,499.275726 
	C30.472261,495.942657 28.404388,493.533966 26.705593,490.675781 
	C27.067160,490.036194 27.059645,489.846100 27.052135,489.656006 
	C26.876715,489.873505 26.701290,490.091003 26.525862,490.308472 
	C24.322687,486.798645 22.119516,483.288849 20.174904,479.304901 
	C20.955589,478.553864 21.477718,478.276917 22.042519,478.320221 
	C22.723413,479.093628 23.361637,479.546814 24.026695,480.334290 
	C22.639076,485.836395 30.022894,485.682648 30.187826,490.275604 
	C30.662840,488.653687 31.137852,487.031799 31.445627,485.980927 
	C33.927120,484.872040 35.960041,483.963623 38.377018,483.085907 
	C48.053570,486.360199 55.027313,484.326599 58.306946,477.416840 
	C48.007587,474.136200 47.260216,469.711578 55.630260,461.570190 
	C50.585617,455.533112 50.996861,453.102112 57.454838,448.630219 
	C58.097328,448.185333 57.793541,446.373871 58.072926,444.856110 
	C61.537075,437.707550 61.439812,437.289978 56.000229,435.000000 
	C56.000000,435.000000 55.999542,435.000000 56.044548,434.614868 
	C55.883530,432.520172 55.909870,430.734741 55.385715,429.128967 
	C55.063190,428.140930 53.899624,427.427368 53.113693,426.590576 
	C54.237774,426.078522 55.361855,425.566467 55.869186,425.335388 
	C55.340771,423.303558 54.738071,421.438995 54.462269,419.527252 
	C54.409782,419.163422 56.150394,418.144653 56.219494,418.218475 
	C57.387508,419.465973 58.288422,420.981720 59.528419,422.137848 
	C60.501110,423.044647 61.856571,423.540955 63.041985,424.219604 
	C63.329586,422.920166 63.635471,421.624298 63.893349,420.319000 
	C63.967972,419.941284 63.904793,419.536346 63.904793,418.681366 
	C65.217644,419.474548 66.120605,420.020111 67.106400,420.615692 
	C67.407623,418.656586 67.678482,416.894897 67.949348,415.133209 
	C69.021080,414.999390 70.092819,414.865570 71.899109,414.743652 
	C73.095276,414.835571 73.556900,414.915619 74.018532,414.995636 
	C74.018532,414.995636 73.991936,415.492584 73.685135,415.895020 
	C71.689247,418.422943 70.000153,420.548492 68.311066,422.674011 
	C67.406013,423.662933 66.500961,424.651855 65.166557,426.078552 
	C62.926136,428.783020 61.115067,431.049683 60.097343,432.323456 
	C64.005974,437.025909 67.435951,441.152527 70.865936,445.279144 
	C70.889275,445.666840 70.912621,446.054565 70.985352,447.141479 
	C69.573006,452.839478 68.111267,457.838196 66.453110,463.508667 
	C67.339592,465.526367 68.764259,468.769043 70.188919,472.011719 
	C70.127861,472.758270 70.066803,473.504852 69.926361,474.961731 
	C68.838104,478.270782 67.829224,480.869507 66.820358,483.468201 
	C65.473633,485.134430 64.126900,486.800629 62.351894,488.934692 
	C59.007038,492.380188 56.090450,495.357880 52.573635,498.948395 
	C54.894917,498.948395 56.450085,498.948395 58.005253,498.948425 
	C61.903107,499.014038 65.800957,499.079681 70.201843,499.483398 
	C70.813202,501.262939 70.921532,502.704376 71.029869,504.145813 
	C71.048683,504.642029 71.067497,505.138245 71.785370,506.030212 
	C72.484421,506.425964 72.412590,506.523987 72.412590,506.523987 
	C72.274330,506.756439 72.136070,506.988922 72.274628,507.590546 
	C72.551453,507.959717 72.451065,507.921051 72.451065,507.921051 
	C68.599930,507.871552 64.748795,507.822052 60.073830,507.740540 
	C54.406387,508.891479 54.189556,509.497528 56.872208,514.202637 
	C56.028301,520.773865 51.482933,526.776489 54.158680,533.392273 
	C57.800636,530.745178 60.866379,528.516846 64.080383,526.180786 
	C65.106575,528.737976 65.992500,530.945618 67.256546,534.095520 
	C61.939587,536.843933 56.847897,539.475891 51.389061,542.120056 
	C50.276680,541.514038 49.603176,540.501587 48.772934,540.350464 
	C46.137356,539.870789 43.160179,538.903625 40.868450,539.705872 
	C39.261017,540.268555 37.845173,543.323364 37.579842,545.421570 
	C36.674679,552.579407 40.801479,555.190735 49.240219,552.954346 
	C50.381618,552.629700 51.194668,552.317810 52.005505,552.380127 
	C52.001945,553.502930 52.000591,554.251465 51.662300,555.000000 
	C50.548508,555.103149 49.771660,555.206360 48.994808,555.309509 
	C49.087650,555.582520 49.180492,555.855530 49.273335,556.128540 
	C50.181961,555.752380 51.090588,555.376221 52.249836,555.000977 
	C52.667545,555.002930 52.834629,555.003906 53.147255,555.338806 
	C53.749428,560.815063 62.080681,563.802673 56.715130,570.295166 
	C56.175171,570.034790 55.113953,569.523010 53.620476,568.802856 
	C52.672436,572.083191 51.834846,574.981323 50.612885,578.036865 
	C37.758900,581.017761 27.959225,575.792725 19.059599,567.854553 
	C19.063704,567.521606 18.937786,567.248596 18.344006,566.643799 
	C16.706575,564.425842 15.406983,562.599609 14.107398,560.773376 
M51.771214,561.046509 
	C51.211960,561.346741 50.652706,561.646973 50.093483,561.947266 
	C50.363853,562.445190 50.634224,562.943176 50.904598,563.441101 
	C51.245037,562.858215 51.585472,562.275269 51.771214,561.046509 
z"/>
<path fill="#131716" opacity="1.000000" stroke="none" 
	d="
M68.035004,415.075195 
	C67.678482,416.894897 67.407623,418.656586 67.106400,420.615692 
	C66.120605,420.020111 65.217644,419.474548 63.904793,418.681366 
	C63.904793,419.536346 63.967972,419.941284 63.893349,420.319000 
	C63.635471,421.624298 63.329586,422.920166 63.041985,424.219604 
	C61.856571,423.540955 60.501110,423.044647 59.528419,422.137848 
	C58.288422,420.981720 57.387508,419.465973 56.219494,418.218475 
	C56.150394,418.144653 54.409782,419.163422 54.462269,419.527252 
	C54.738071,421.438995 55.340771,423.303558 55.869186,425.335388 
	C55.361855,425.566467 54.237774,426.078522 53.113693,426.590576 
	C53.899624,427.427368 55.063190,428.140930 55.385715,429.128967 
	C55.909870,430.734741 55.883530,432.520172 55.760841,434.649902 
	C55.110394,435.374695 54.788662,435.679352 54.466927,435.983978 
	C54.676140,436.165070 54.885353,436.346191 55.094578,436.527283 
	C55.396553,436.018188 55.698513,435.509094 56.000465,435.000000 
	C61.439812,437.289978 61.537075,437.707550 57.760155,444.737793 
	C56.067966,444.033844 54.832539,443.107727 53.894333,442.009521 
	C54.204586,441.065216 54.217613,440.293060 54.230637,439.520874 
	C53.820351,440.346680 53.410076,441.172485 52.584373,442.024414 
	C49.411434,441.586060 46.653915,441.121613 44.168678,440.377869 
	C44.415737,439.637238 44.390514,439.175903 44.365288,438.714539 
	C44.080986,438.792175 43.547276,438.884918 43.550915,438.945190 
	C43.587906,439.557739 43.712502,440.165009 43.615467,441.085815 
	C38.911694,443.921051 34.405006,446.444244 29.527428,448.981567 
	C28.255882,449.517365 27.355234,450.039001 26.454592,450.560608 
	C26.893364,451.101685 27.332129,451.642761 27.639484,452.556335 
	C23.903008,460.385315 24.858700,467.670502 28.056240,474.994110 
	C26.118174,474.871918 24.455805,474.616699 22.416950,474.303680 
	C22.275530,475.557861 22.137842,476.778931 22.000076,478.000000 
	C22.000000,478.000000 21.999847,478.000000 21.999847,478.000000 
	C21.477718,478.276917 20.955589,478.553864 20.157990,478.939331 
	C19.156433,477.162231 18.430349,475.276550 17.514301,472.809875 
	C17.177912,471.817291 17.031487,471.405762 16.885061,470.994202 
	C16.905193,470.545380 16.925325,470.096527 17.384798,469.230255 
	C18.441130,465.928040 19.478752,463.048706 19.515881,460.156494 
	C19.537825,458.447052 17.977200,456.717346 17.074823,454.661499 
	C16.994598,453.877258 16.967796,453.428192 16.940998,452.979156 
	C17.250332,451.886444 17.559664,450.793732 17.932194,448.990356 
	C18.637930,446.251801 19.280470,444.223877 20.151302,441.475464 
	C17.667448,441.734833 15.828245,441.926910 13.989041,442.118958 
	C11.763379,442.051880 9.537717,441.984772 6.963960,442.076355 
	C6.615863,442.235077 6.660170,442.111420 6.660170,442.111420 
	C7.890610,439.981384 9.092908,437.834473 10.356962,435.724548 
	C13.664339,430.204041 16.998697,424.699646 20.785271,419.272156 
	C22.059910,420.585693 22.871578,421.815979 23.282578,422.438934 
	C25.820745,421.595764 28.176708,420.813141 30.752209,420.217255 
	C31.991882,420.870483 33.012016,421.336945 34.399483,421.885376 
	C38.440887,419.822815 42.114956,417.678284 45.976414,415.853821 
	C51.292446,417.342468 49.341324,413.217743 50.068604,410.757690 
	C50.871742,409.563660 51.605629,408.655762 52.738262,407.794983 
	C58.601143,405.611298 59.234627,410.613190 61.815624,413.285156 
	C60.603897,413.769470 59.788826,414.095245 58.862404,414.465515 
	C61.274200,415.795624 63.246246,420.258545 66.344841,415.058228 
	C67.147278,414.921509 67.609222,414.868896 68.071159,414.816284 
	C68.071159,414.816254 68.120667,415.017151 68.035004,415.075195 
M46.395172,434.200867 
	C46.787006,434.205109 47.178841,434.209351 47.570675,434.213623 
	C47.572208,434.051025 47.584682,433.747070 47.573696,433.746216 
	C47.183765,433.716003 46.791634,433.714264 46.395172,434.200867 
M48.294716,422.436127 
	C48.010761,422.707062 47.726810,422.977997 47.442875,423.248932 
	C47.555157,423.366394 47.758896,423.592163 47.766521,423.585693 
	C48.065979,423.332855 48.347561,423.058838 48.294716,422.436127 
M23.735840,453.183167 
	C23.622532,453.026886 23.509222,452.870605 23.395929,452.714325 
	C23.418692,452.931580 23.441456,453.148804 23.735840,453.183167 
M22.412634,456.482880 
	C22.412634,456.482880 22.523014,456.416443 22.412634,456.482880 
M23.413845,460.483307 
	C23.413845,460.483307 23.522232,460.418671 23.413845,460.483307 
z"/>
<path fill="#1E1E19" opacity="1.000000" stroke="none" 
	d="
M50.997261,577.879517 
	C51.834846,574.981323 52.672436,572.083191 53.620476,568.802856 
	C55.113953,569.523010 56.175171,570.034790 56.715130,570.295166 
	C62.080681,563.802673 53.749428,560.815063 53.481838,555.191040 
	C56.934181,553.492065 60.197487,552.274719 62.926361,551.256775 
	C61.501339,548.698242 60.079865,546.146057 58.445126,543.210999 
	C58.098885,545.588501 57.811962,547.558716 57.450916,550.037842 
	C55.367413,547.321411 53.714207,545.166016 51.956375,542.794556 
	C51.851749,542.578430 51.756218,542.107849 51.756214,542.107849 
	C56.847897,539.475891 61.939587,536.843933 67.256546,534.095520 
	C65.992500,530.945618 65.106575,528.737976 64.080383,526.180786 
	C60.866379,528.516846 57.800636,530.745178 54.158680,533.392273 
	C51.482933,526.776489 56.028301,520.773865 57.205940,514.275146 
	C60.789543,516.711182 63.900043,519.312195 67.010544,521.913269 
	C67.010544,521.913269 67.033340,522.190918 67.303230,522.582031 
	C69.482750,525.652649 71.392387,528.332031 73.302025,531.011475 
	C73.502556,531.521118 73.703087,532.030823 74.123535,533.129272 
	C79.342133,545.518433 76.527153,556.216248 69.738708,566.353455 
	C68.467545,567.706543 67.196373,569.059631 65.478104,570.823608 
	C63.114822,571.858032 61.198643,572.481567 58.893948,573.082520 
	C57.697468,573.780640 56.889503,574.501343 56.041328,575.569031 
	C54.333164,576.570496 52.665215,577.225037 50.997261,577.879517 
z"/>
<path fill="#1A1B19" opacity="1.000000" stroke="none" 
	d="
M66.004349,415.142273 
	C63.246246,420.258545 61.274200,415.795624 58.862404,414.465515 
	C59.788826,414.095245 60.603897,413.769470 61.815624,413.285156 
	C59.234627,410.613190 58.601143,405.611298 52.824051,407.508789 
	C52.909367,406.749054 53.307632,406.322571 53.899605,405.870300 
	C54.204018,405.780579 54.417221,405.679230 54.409649,405.658508 
	C54.328423,405.435944 54.212330,405.226105 54.165993,404.663452 
	C56.193974,398.411499 58.991959,392.638031 59.934879,386.576019 
	C61.347866,377.491913 61.458157,368.205200 62.435379,359.008179 
	C64.648926,360.328247 65.188606,364.449982 68.914925,362.003479 
	C69.044647,364.381500 69.174377,366.759552 68.824852,369.631470 
	C66.503868,371.992157 65.952675,373.706024 68.923309,375.002747 
	C68.238091,380.712524 67.552864,386.422333 66.633591,392.739868 
	C67.287849,394.117493 68.176147,394.887390 69.064438,395.657288 
	C70.779175,395.693176 72.493904,395.729095 74.843422,395.809601 
	C75.673294,395.897308 75.868378,395.940460 76.063461,395.983582 
	C74.446800,398.443604 72.830132,400.903656 70.812668,403.843567 
	C68.584145,406.831116 66.790245,409.364410 64.917046,411.837616 
	C63.627693,413.539948 63.410179,414.773285 66.004349,415.142273 
M57.588295,404.517792 
	C57.588295,404.517792 57.477531,404.583984 57.588295,404.517792 
z"/>
<path fill="#1B1C1B" opacity="1.000000" stroke="none" 
	d="
M24.998659,360.003662 
	C25.493008,359.741638 25.987349,359.479584 26.745247,359.456360 
	C27.367910,360.337250 27.727020,360.979309 28.086121,361.621338 
	C28.763685,360.990265 29.441257,360.359192 30.433479,359.876343 
	C33.042313,361.618866 35.467930,363.059265 37.582081,364.864441 
	C38.880814,365.973297 40.636581,367.667023 40.596870,369.052521 
	C40.126457,385.464569 37.276726,401.405884 30.061222,416.073669 
	C29.272757,414.502869 28.641769,413.255127 28.215508,411.882904 
	C28.403788,411.405396 28.387344,411.052399 28.370899,410.699402 
	C28.243299,411.128937 28.115702,411.558502 27.616211,412.030090 
	C26.042475,412.335999 24.840633,412.599884 23.638790,412.863800 
	C26.356625,401.195465 29.074457,389.527161 31.875757,377.038269 
	C31.897480,373.285034 33.535145,369.614960 28.717228,368.745972 
	C26.192844,366.048737 23.668467,363.351501 21.110497,360.314392 
	C21.504356,359.982422 21.931807,359.990295 23.012917,360.000061 
	C24.110601,360.002502 24.554628,360.003082 24.998659,360.003662 
z"/>
<path fill="#131615" opacity="1.000000" stroke="none" 
	d="
M51.953651,334.135773 
	C53.180092,331.875885 54.406532,329.615997 55.916168,326.834290 
	C54.617405,325.327637 53.022675,323.477661 51.427944,321.627655 
	C51.848267,321.562958 52.268593,321.498260 52.688919,321.433533 
	C52.483749,318.527130 52.278584,315.620697 52.036705,312.357147 
	C52.000000,312.000000 52.000153,312.000000 52.000153,312.000000 
	C53.307549,312.293976 54.614944,312.587982 56.327576,312.859802 
	C58.037067,315.554443 59.341312,318.271240 60.328354,321.520081 
	C58.158554,324.604492 59.895813,324.885315 61.881920,325.008698 
	C62.779587,327.474426 63.677250,329.940125 64.732315,332.987061 
	C65.091156,334.092102 65.292603,334.615906 65.494041,335.139740 
	C65.637009,335.861786 65.779976,336.583862 66.017883,337.971466 
	C66.116226,339.078400 66.119629,339.519775 65.800461,339.866516 
	C62.814785,339.510315 60.151669,339.248749 57.315300,338.697510 
	C56.427216,337.881561 55.712383,337.355194 54.867104,336.637665 
	C54.521290,336.208252 54.255726,336.059845 53.687889,335.873901 
	C52.941757,335.209656 52.447701,334.672699 51.953651,334.135773 
z"/>
<path fill="#F3F4EE" opacity="1.000000" stroke="none" 
	d="
M59.282455,573.105103 
	C61.198643,572.481567 63.114822,571.858032 65.317551,571.120850 
	C68.205612,573.890991 66.371628,575.275208 63.819942,576.568970 
	C61.655186,577.666443 57.675255,575.300171 57.227592,579.939819 
	C57.217232,580.047180 55.120678,579.953308 54.435581,579.953308 
	C54.435581,581.218140 54.435581,582.191833 54.435581,583.165527 
	C53.139542,582.948120 51.407162,583.187500 50.620796,582.436401 
	C46.581436,578.578369 44.389252,581.136414 42.009827,584.816345 
	C39.291656,584.310425 36.344833,583.761963 33.398003,583.213501 
	C33.914024,582.661377 34.430054,582.109253 35.423771,581.046082 
	C32.989716,580.546509 30.850428,580.107422 28.633841,579.652466 
	C27.846546,578.715637 26.640646,576.196899 25.649698,576.278870 
	C19.602730,576.778625 18.973137,573.108643 19.040651,568.240234 
	C27.959225,575.792725 37.758900,581.017761 50.612888,578.036865 
	C52.665215,577.225037 54.333164,576.570496 56.378983,575.505554 
	C57.598713,574.431763 58.440582,573.768433 59.282455,573.105103 
z"/>
<path fill="#212220" opacity="1.000000" stroke="none" 
	d="
M57.488556,338.987152 
	C60.151669,339.248749 62.814785,339.510315 65.963669,339.917786 
	C66.449440,340.063629 66.791397,340.073578 66.791397,340.073578 
	C67.187401,342.504028 67.583412,344.934479 68.024460,348.020325 
	C68.322197,349.798187 68.574890,350.920715 68.827576,352.043213 
	C68.919128,355.066559 69.010681,358.089905 69.008575,361.558350 
	C65.188606,364.449982 64.648926,360.328247 62.333664,358.598694 
	C61.144779,352.336548 61.895287,346.068604 57.140999,341.301392 
	C56.813068,340.972565 57.352489,339.778717 57.488556,338.987152 
z"/>
<path fill="#F3F4EE" opacity="1.000000" stroke="none" 
	d="
M69.895020,566.698608 
	C76.527153,556.216248 79.342133,545.518433 74.294380,533.350586 
	C75.478935,533.307678 76.728653,533.582397 77.941216,533.972595 
	C78.952003,534.297852 79.919250,534.758423 79.926910,534.761536 
	C79.926910,542.374146 79.926910,549.447998 79.926910,556.537048 
	C76.725639,556.745483 74.310318,560.396301 74.399101,564.717468 
	C74.423866,565.922607 74.100243,567.134949 73.936447,568.343994 
	C72.641403,567.910583 71.346359,567.477234 69.895020,566.698608 
z"/>
<path fill="#F3F3EE" opacity="1.000000" stroke="none" 
	d="
M71.021042,444.939301 
	C67.435951,441.152527 64.005974,437.025909 60.097343,432.323456 
	C61.115067,431.049683 62.926136,428.783020 65.022186,426.325287 
	C66.247391,429.812866 67.187622,433.491486 68.185532,437.395782 
	C70.061943,436.086151 71.709457,434.936279 73.775841,433.494049 
	C74.631966,435.274292 75.237373,436.533173 76.226601,438.590179 
	C74.553474,438.104767 73.623711,437.834991 73.063477,437.672455 
	C72.433044,439.986298 71.804596,442.292877 71.021042,444.939301 
z"/>
<path fill="#F3F3EE" opacity="1.000000" stroke="none" 
	d="
M70.517441,471.949768 
	C68.764259,468.769043 67.339592,465.526367 66.453110,463.508667 
	C68.111267,457.838196 69.573006,452.839478 71.093796,447.414642 
	C72.249214,446.774323 73.345566,446.560120 75.762024,446.087952 
	C73.923050,451.874176 72.186150,456.827698 70.850380,461.887146 
	C70.498360,463.220459 71.643990,464.882019 71.637939,466.390991 
	C71.630569,468.224304 71.132027,470.055603 70.517441,471.949768 
z"/>
<path fill="#0E0F0F" opacity="1.000000" stroke="none" 
	d="
M28.010782,412.007416 
	C28.641769,413.255127 29.272757,414.502869 30.084858,416.337219 
	C30.289989,417.266418 30.314007,417.609039 30.268990,418.301147 
	C30.310860,419.110626 30.421766,419.570557 30.532671,420.030518 
	C28.176708,420.813141 25.820745,421.595764 23.282578,422.438934 
	C22.871578,421.815979 22.059910,420.585693 21.061903,419.060486 
	C21.636400,416.947144 22.397236,415.128754 23.398430,413.087097 
	C24.840633,412.599884 26.042475,412.335999 27.621773,412.035706 
	C27.999228,411.999268 28.010782,412.007416 28.010782,412.007416 
z"/>
<path fill="#EBEDED" opacity="1.000000" stroke="none" 
	d="
M34.404785,111.981003 
	C33.150253,115.885597 31.506371,119.789520 29.600037,123.900391 
	C28.643682,122.005409 26.875896,119.483566 27.496777,117.895760 
	C28.539919,115.228058 29.453457,111.239799 34.404785,111.981003 
z"/>
<path fill="#EDEDEA" opacity="1.000000" stroke="none" 
	d="
M67.020340,521.518433 
	C63.900043,519.312195 60.789543,516.711182 57.345310,514.037598 
	C54.189556,509.497528 54.406387,508.891479 59.621906,507.825012 
	C60.771347,511.572906 61.265789,515.235046 65.471725,516.989136 
	C66.403816,517.377869 66.531860,519.694580 67.020340,521.518433 
z"/>
<path fill="#F3F3F2" opacity="1.000000" stroke="none" 
	d="
M79.670883,253.163757 
	C81.463615,252.166550 83.908997,249.921875 84.906876,250.443939 
	C86.722878,251.394043 88.505745,253.866135 88.806068,255.921753 
	C89.288742,259.225525 87.383911,260.393036 84.019760,257.755127 
	C82.348213,255.899673 81.009544,254.531723 79.670883,253.163757 
z"/>
<path fill="#EFF0E9" opacity="1.000000" stroke="none" 
	d="
M58.082268,498.582764 
	C56.450085,498.948395 54.894917,498.948395 52.573635,498.948395 
	C56.090450,495.357880 59.007038,492.380188 62.176697,489.249817 
	C63.202312,489.838898 64.763924,490.887115 64.614845,491.270966 
	C63.849297,493.242340 62.840733,495.203400 61.509563,496.835785 
	C60.838043,497.659302 59.303570,497.779144 58.082268,498.582764 
z"/>
<path fill="#EDEFEB" opacity="1.000000" stroke="none" 
	d="
M71.248886,214.028381 
	C69.317612,209.928238 67.767944,205.812714 66.192421,201.340149 
	C67.433235,201.635880 69.114525,201.980057 69.878761,203.006821 
	C71.388290,205.034882 72.500305,207.390015 73.568710,209.705856 
	C74.500168,211.724838 75.986412,214.259171 71.248886,214.028381 
z"/>
<path fill="#F3F3EE" opacity="1.000000" stroke="none" 
	d="
M66.967911,483.802521 
	C67.829224,480.869507 68.838104,478.270782 69.989159,475.331696 
	C73.991875,478.129852 74.105972,480.717621 70.370872,486.907837 
	C69.247536,485.951660 68.181503,485.044250 66.967911,483.802521 
z"/>
<path fill="#E9EAE5" opacity="1.000000" stroke="none" 
	d="
M66.344841,415.058228 
	C63.410179,414.773285 63.627693,413.539948 64.917046,411.837616 
	C66.790245,409.364410 68.584145,406.831116 70.708382,404.165955 
	C73.836540,406.851715 72.098404,408.886810 69.911598,411.014130 
	C69.049355,411.852936 68.612373,413.128876 68.026443,414.511017 
	C67.609222,414.868896 67.147278,414.921509 66.344841,415.058228 
z"/>
<path fill="#131615" opacity="1.000000" stroke="none" 
	d="
M79.339233,253.143036 
	C81.009544,254.531723 82.348213,255.899673 83.735909,257.593628 
	C81.405685,258.337952 79.026421,258.756226 76.323753,259.038635 
	C76.311783,257.164398 76.623222,255.426010 76.980362,253.308975 
	C77.686584,252.994324 78.347084,253.058319 79.339233,253.143036 
z"/>
<path fill="#1A1B19" opacity="1.000000" stroke="none" 
	d="
M17.128246,454.996735 
	C17.977200,456.717346 19.537825,458.447052 19.515881,460.156494 
	C19.478752,463.048706 18.441130,465.928040 17.445919,468.897278 
	C16.858292,468.776550 16.744007,468.527649 16.655334,467.739410 
	C16.426382,466.832489 16.266945,466.421234 16.107506,466.009979 
	C16.141754,464.293823 16.175999,462.577698 16.297750,460.112305 
	C16.632919,457.907654 16.880585,456.452179 17.128246,454.996735 
z"/>
<path fill="#EDEFEB" opacity="1.000000" stroke="none" 
	d="
M75.504669,251.188660 
	C74.535629,250.260910 73.345612,249.026917 73.575584,248.177231 
	C73.916451,246.917801 75.263985,245.930817 76.553261,244.347656 
	C76.931168,242.918930 76.938789,241.970398 76.946404,241.021866 
	C78.009102,241.195084 79.071808,241.368301 81.061958,241.692688 
	C79.160934,245.153015 77.539917,248.103668 75.504669,251.188660 
z"/>
<path fill="#EBEDED" opacity="1.000000" stroke="none" 
	d="
M13.994740,442.443420 
	C15.828245,441.926910 17.667448,441.734833 20.151302,441.475464 
	C19.280470,444.223877 18.637930,446.251801 17.901676,448.647949 
	C16.123764,448.661163 14.439568,448.306061 13.145158,448.033173 
	C13.462416,446.080078 13.731426,444.423981 13.994740,442.443420 
z"/>
<path fill="#F3F3EE" opacity="1.000000" stroke="none" 
	d="
M68.565590,422.787720 
	C70.000153,420.548492 71.689247,418.422943 73.674316,416.143616 
	C74.155952,418.274017 75.133507,420.896179 74.337601,422.761597 
	C73.205582,425.414825 70.747253,425.279083 68.565590,422.787720 
z"/>
<path fill="#E7E9E8" opacity="1.000000" stroke="none" 
	d="
M73.971222,239.929855 
	C71.079544,240.347809 67.870682,240.744934 69.728531,235.305176 
	C69.919136,234.112701 69.963768,233.565628 70.008400,233.018570 
	C70.179398,232.993149 70.331329,232.903107 70.539307,232.809143 
	C71.930115,233.185013 73.245811,233.500198 73.883881,233.653046 
	C73.883881,235.852280 73.883881,237.759415 73.971222,239.929855 
z"/>
<path fill="#E7E9E8" opacity="1.000000" stroke="none" 
	d="
M31.548923,508.854553 
	C34.747803,513.997864 29.236917,514.136963 26.917028,516.556763 
	C26.779825,514.825317 26.953541,512.960449 27.169949,510.637299 
	C28.222395,510.194641 29.694309,509.575562 31.548923,508.854553 
z"/>
<path fill="#E2E3E2" opacity="1.000000" stroke="none" 
	d="
M28.368782,368.902161 
	C33.535145,369.614960 31.897480,373.285034 31.831573,376.628693 
	C28.490808,375.295471 26.682438,372.902954 28.368782,368.902161 
z"/>
<path fill="#F3F3F2" opacity="1.000000" stroke="none" 
	d="
M17.295706,499.228302 
	C17.715580,501.865021 17.738844,504.454285 17.919567,507.393921 
	C18.010345,508.541840 17.943666,509.339386 17.800974,511.046173 
	C15.659467,508.018921 14.000363,505.673615 12.341260,503.328308 
	C13.079628,504.230164 13.817996,505.132050 14.556364,506.033905 
	C15.337275,503.749573 16.118185,501.465210 17.295706,499.228302 
z"/>
<path fill="#F3F4EE" opacity="1.000000" stroke="none" 
	d="
M73.640083,530.921387 
	C71.392387,528.332031 69.482750,525.652649 67.425827,522.648071 
	C72.511086,522.601440 75.461929,526.348938 73.640083,530.921387 
z"/>
<path fill="#030504" opacity="1.000000" stroke="none" 
	d="
M50.787178,39.754692 
	C50.135376,38.602230 49.149311,37.043385 49.077744,35.443626 
	C48.893948,31.334949 49.114563,27.208099 49.190742,23.088831 
	C49.191719,23.036049 49.474510,22.909712 49.531235,22.950186 
	C49.794559,23.138084 50.024509,23.372755 50.492805,23.779696 
	C50.769291,29.089031 50.819386,34.209351 50.787178,39.754692 
z"/>
<path fill="#EBEDED" opacity="1.000000" stroke="none" 
	d="
M56.455044,264.154816 
	C56.455044,264.154816 56.739456,264.216919 56.878143,264.261108 
	C57.016827,266.933167 57.016827,269.561005 57.016827,273.034760 
	C55.134743,271.857452 53.960999,271.123260 52.516151,270.224121 
	C52.743553,269.221161 53.242065,268.383057 54.100029,267.109924 
	C55.124672,265.834839 55.789860,264.994843 56.455044,264.154816 
z"/>
<path fill="#F5F6F1" opacity="1.000000" stroke="none" 
	d="
M71.513550,504.370483 
	C70.921532,502.704376 70.813202,501.262939 70.637985,499.501221 
	C72.013245,499.335449 73.455391,499.489960 74.897537,499.644440 
	C74.481651,501.617401 76.485519,505.007965 71.513550,504.370483 
z"/>
<path fill="#EBECE9" opacity="1.000000" stroke="none" 
	d="
M57.117592,116.824280 
	C55.900093,114.939224 54.992558,112.815132 54.102257,110.331802 
	C56.406754,107.448769 57.395119,110.153671 57.712536,111.325935 
	C58.148315,112.935310 57.570843,114.819061 57.117592,116.824280 
z"/>
<path fill="#F3F4EE" opacity="1.000000" stroke="none" 
	d="
M13.958214,561.105347 
	C15.406983,562.599609 16.706575,564.425842 18.122555,566.575439 
	C16.327015,566.769531 14.415088,566.640198 11.726856,566.458435 
	C12.518296,564.549866 13.163668,562.993591 13.958214,561.105347 
z"/>
<path fill="#131615" opacity="1.000000" stroke="none" 
	d="
M36.849323,294.433990 
	C40.877663,295.368805 41.709633,297.269196 37.642197,299.986938 
	C37.096092,298.286774 36.918499,296.570190 36.849323,294.433990 
z"/>
<path fill="#030504" opacity="1.000000" stroke="none" 
	d="
M50.611412,72.568604 
	C50.274246,70.394264 50.042656,67.810448 50.161789,64.997025 
	C50.580669,67.231316 50.648827,69.695221 50.611412,72.568604 
z"/>
<path fill="#131615" opacity="1.000000" stroke="none" 
	d="
M36.777092,288.420044 
	C37.467175,287.312622 38.028278,286.586548 38.738235,285.667847 
	C40.011948,288.154877 41.280663,290.420227 37.271301,291.937073 
	C36.817959,290.911407 36.733036,289.856415 36.777092,288.420044 
z"/>
<path fill="#131615" opacity="1.000000" stroke="none" 
	d="
M14.739138,332.295166 
	C15.035410,332.896088 15.017680,333.599609 14.783001,334.759430 
	C14.296461,335.410095 14.111882,335.665863 14.012309,335.982910 
	C12.656001,336.224792 11.299696,336.466675 9.526133,336.530884 
	C10.880962,335.034760 12.653049,333.716278 14.739138,332.295166 
z"/>
<path fill="#EBEDED" opacity="1.000000" stroke="none" 
	d="
M17.074825,454.661499 
	C16.880585,456.452179 16.632919,457.907654 16.220179,459.689087 
	C16.105799,457.729492 16.156496,455.443878 16.574093,453.068726 
	C16.967796,453.428192 16.994598,453.877258 17.074825,454.661499 
z"/>
<path fill="#030504" opacity="1.000000" stroke="none" 
	d="
M50.630589,61.694954 
	C50.312260,57.851200 50.097824,53.540123 50.282009,49.000931 
	C50.698578,52.924419 50.716530,57.076023 50.630589,61.694954 
z"/>
<path fill="#1B1C1B" opacity="1.000000" stroke="none" 
	d="
M7.254983,337.949402 
	C8.265558,338.670715 9.001746,339.541840 9.880184,340.737488 
	C7.861858,341.251648 4.812002,342.354401 7.254983,337.949402 
z"/>
<path fill="#EFF0EC" opacity="1.000000" stroke="none" 
	d="
M69.190002,352.028748 
	C68.574890,350.920715 68.322197,349.798187 68.133545,348.329102 
	C69.128075,349.086731 70.058563,350.190948 70.994522,351.647583 
	C71.000000,352.000000 71.003136,351.996002 71.003136,351.996002 
	C70.519562,352.002106 70.035995,352.008179 69.190002,352.028748 
z"/>
<path fill="#212220" opacity="1.000000" stroke="none" 
	d="
M69.035446,374.595581 
	C65.952675,373.706024 66.503868,371.992157 68.708290,370.064026 
	C69.096512,371.397888 69.122040,372.793121 69.035446,374.595581 
z"/>
<path fill="#EDEFEB" opacity="1.000000" stroke="none" 
	d="
M71.713524,219.980438 
	C71.244720,218.954590 71.085365,217.877701 70.995926,216.396881 
	C73.975349,216.675232 75.013611,217.812515 71.713524,219.980438 
z"/>
<path fill="#F5F6F1" opacity="1.000000" stroke="none" 
	d="
M68.137787,510.157776 
	C69.051292,509.907837 69.669319,509.766235 71.437149,509.361145 
	C70.235649,510.913391 69.579552,511.761017 68.923447,512.608643 
	C68.563057,511.827789 68.202675,511.046906 68.137787,510.157776 
z"/>
<path fill="#212220" opacity="1.000000" stroke="none" 
	d="
M61.906815,324.709351 
	C59.895813,324.885315 58.158554,324.604492 60.353386,321.894196 
	C61.107655,322.627472 61.519680,323.518738 61.906815,324.709351 
z"/>
<path fill="#131615" opacity="1.000000" stroke="none" 
	d="
M38.665115,275.203064 
	C39.542332,275.489410 40.192822,276.012543 40.843315,276.535675 
	C40.166359,277.018005 39.489399,277.500305 38.453884,277.991699 
	C38.209682,277.147186 38.324036,276.293518 38.665115,275.203064 
z"/>
<path fill="#131615" opacity="1.000000" stroke="none" 
	d="
M76.623764,240.980103 
	C76.938789,241.970398 76.931168,242.918930 76.708603,244.024933 
	C75.906425,243.261154 75.319183,242.339905 74.873688,241.167389 
	C75.444000,240.923538 75.872559,240.930939 76.623764,240.980103 
z"/>
<path fill="#131615" opacity="1.000000" stroke="none" 
	d="
M59.355190,224.355042 
	C60.257267,224.415482 61.042526,224.840714 61.827789,225.265961 
	C61.196426,225.838455 60.565060,226.410965 59.592941,226.993439 
	C59.247578,226.242218 59.242973,225.481033 59.355190,224.355042 
z"/>
<path fill="#F3F3EE" opacity="1.000000" stroke="none" 
	d="
M16.533306,471.001831 
	C17.031487,471.405762 17.177912,471.817291 17.286942,472.558594 
	C16.248632,472.941772 15.247722,472.995239 14.246804,473.048706 
	C14.891715,472.368927 15.536633,471.689178 16.533306,471.001831 
z"/>
<path fill="#EDEFEB" opacity="1.000000" stroke="none" 
	d="
M71.604797,227.973724 
	C71.266716,227.169800 71.254578,226.317581 71.405937,225.187973 
	C72.229996,225.239853 72.890549,225.569122 73.551102,225.898407 
	C73.010979,226.574081 72.470856,227.249756 71.604797,227.973724 
z"/>
<path fill="#E7E9E8" opacity="1.000000" stroke="none" 
	d="
M21.199371,509.017273 
	C22.142321,508.688965 23.408092,508.434875 24.623562,508.494629 
	C23.556236,508.902802 22.539215,508.997131 21.199371,509.017273 
z"/>
<path fill="#E9EAE5" opacity="1.000000" stroke="none" 
	d="
M74.249329,414.804932 
	C73.556900,414.915619 73.095276,414.835571 72.291771,414.642395 
	C72.332314,413.797974 72.714737,413.066711 73.097168,412.335419 
	C73.558159,413.095032 74.019150,413.854645 74.249329,414.804932 
z"/>
<path fill="#D8D9D5" opacity="1.000000" stroke="none" 
	d="
M68.992950,395.299194 
	C68.176147,394.887390 67.287849,394.117493 66.629448,393.158661 
	C67.546707,393.626831 68.234077,394.283966 68.992950,395.299194 
z"/>
<path fill="#131615" opacity="1.000000" stroke="none" 
	d="
M49.893291,274.701111 
	C48.977226,274.612335 48.243855,274.222351 47.510483,273.832367 
	C48.205059,273.559143 48.899643,273.285919 49.951134,273.014130 
	C50.230686,273.477020 50.153336,273.938477 49.893291,274.701111 
z"/>
<path fill="#F3F3EE" opacity="1.000000" stroke="none" 
	d="
M15.743557,466.014374 
	C16.266945,466.421234 16.426382,466.832489 16.527119,467.573853 
	C15.499125,467.619507 14.529836,467.335083 13.560549,467.050659 
	C14.166903,466.706665 14.773254,466.362701 15.743557,466.014374 
z"/>
<path fill="#EFF0EC" opacity="1.000000" stroke="none" 
	d="
M67.108940,340.024536 
	C66.791397,340.073578 66.449440,340.063629 66.286232,340.012390 
	C66.119629,339.519775 66.116226,339.078400 66.166168,338.309021 
	C66.973793,338.209381 67.728065,338.437744 68.482346,338.666107 
	C68.130394,339.102570 67.778435,339.539001 67.108940,340.024536 
z"/>
<path fill="#131615" opacity="1.000000" stroke="none" 
	d="
M25.999695,323.000000 
	C25.588636,323.000641 25.177578,323.001312 24.458227,323.000793 
	C24.149935,322.999603 23.836546,322.830017 23.821598,322.652466 
	C24.031778,321.903564 24.256905,321.332153 24.482029,320.760773 
	C24.968836,321.293304 25.455645,321.825867 25.971226,322.679199 
	C26.000000,323.000000 25.999695,323.000000 25.999695,323.000000 
z"/>
<path fill="#030504" opacity="1.000000" stroke="none" 
	d="
M50.504681,82.913727 
	C50.219490,82.515182 50.058994,81.866173 50.159508,81.122696 
	C50.490139,81.573242 50.559757,82.118248 50.504681,82.913727 
z"/>
<path fill="#D8D9D5" opacity="1.000000" stroke="none" 
	d="
M76.270538,395.835144 
	C75.868378,395.940460 75.673294,395.897308 75.205681,395.729492 
	C75.282852,395.200745 75.632553,394.796631 75.982254,394.392548 
	C76.147377,394.823944 76.312500,395.255310 76.270538,395.835144 
z"/>
<path fill="#131615" opacity="1.000000" stroke="none" 
	d="
M19.684475,328.971191 
	C20.088701,329.472870 20.244856,329.973511 20.401012,330.474182 
	C19.987801,330.394867 19.574591,330.315521 19.020929,329.984924 
	C18.901781,329.359741 19.087090,329.105255 19.684475,328.971191 
z"/>
<path fill="#1B1C1B" opacity="1.000000" stroke="none" 
	d="
M19.540676,342.429260 
	C20.206699,342.418243 20.809601,342.679901 21.412495,342.941589 
	C20.994326,343.245789 20.576162,343.550018 19.814737,343.832336 
	C19.473501,343.440979 19.475527,343.071472 19.540676,342.429260 
z"/>
<path fill="#EFF0EC" opacity="1.000000" stroke="none" 
	d="
M65.788834,335.020447 
	C65.292603,334.615906 65.091156,334.092102 64.937637,333.284851 
	C65.351570,333.634674 65.717590,334.267944 65.788834,335.020447 
z"/>
<path fill="#030504" opacity="1.000000" stroke="none" 
	d="
M50.548740,88.724907 
	C50.218483,88.167671 49.983582,87.206314 50.064419,86.057236 
	C50.468140,86.686600 50.556118,87.503693 50.548740,88.724907 
z"/>
<path fill="#EBECE9" opacity="1.000000" stroke="none" 
	d="
M54.360222,103.891479 
	C54.636662,104.164185 54.750816,104.570732 54.807510,104.985130 
	C54.817368,105.057159 54.584553,105.162392 54.463814,105.252274 
	C54.368698,104.844177 54.273582,104.436073 54.360222,103.891479 
z"/>
<path fill="#F5F6F1" opacity="1.000000" stroke="none" 
	d="
M72.524834,507.909912 
	C73.013313,508.045502 73.528412,508.230865 74.043510,508.416260 
	C73.658661,508.379852 73.273811,508.343414 72.670013,508.114014 
	C72.451065,507.921051 72.551453,507.959717 72.524834,507.909912 
z"/>
<path fill="#F5F6F1" opacity="1.000000" stroke="none" 
	d="
M72.708206,506.633789 
	C72.412590,506.523987 72.484421,506.425964 72.446365,506.373596 
	C72.946442,506.365021 73.484573,506.408813 74.022697,506.452606 
	C73.683067,506.549591 73.343437,506.646576 72.708206,506.633789 
z"/>
<path fill="#EBEDED" opacity="1.000000" stroke="none" 
	d="
M7.715406,444.601959 
	C7.844335,444.438965 8.068374,444.415009 8.292410,444.391052 
	C8.131777,444.507690 7.971147,444.624329 7.715406,444.601959 
z"/>
<path fill="#EDEFEB" opacity="1.000000" stroke="none" 
	d="
M73.550903,201.468124 
	C73.584572,201.524628 73.517235,201.411621 73.550903,201.468124 
z"/>
<path fill="#EBEDED" opacity="1.000000" stroke="none" 
	d="
M6.433886,442.174622 
	C6.660170,442.111420 6.615863,442.235077 6.666150,442.270935 
	C6.546825,442.283783 6.377213,442.260803 6.433886,442.174622 
z"/>
<path fill="#EFF0EC" opacity="1.000000" stroke="none" 
	d="
M70.997948,352.001587 
	C71.117836,352.142700 71.239777,352.282227 71.361725,352.421814 
	C71.277161,352.372162 71.192612,352.322510 71.055603,352.134430 
	C71.003136,351.996002 71.000000,352.000000 70.997948,352.001587 
z"/>
<path fill="#D8D9D5" opacity="1.000000" stroke="none" 
	d="
M78.446548,396.522095 
	C78.419746,396.477570 78.473358,396.566620 78.446548,396.522095 
z"/>
<path fill="#F9F9F9" opacity="1.000000" stroke="none" 
	d="
M30.338017,417.951660 
	C30.314007,417.609039 30.289989,417.266418 30.242336,416.660278 
	C37.276726,401.405884 40.126457,385.464569 40.596870,369.052521 
	C40.636581,367.667023 38.880814,365.973297 37.582081,364.864441 
	C35.467930,363.059265 33.042313,361.618866 30.371590,359.591064 
	C29.401289,358.410980 28.807531,357.664398 28.213776,356.917786 
	C25.386831,349.713257 25.359095,342.897644 31.015221,336.432800 
	C31.031145,335.996063 31.237022,336.242004 31.237022,336.242004 
	C37.342751,330.805756 44.208584,332.132874 51.544693,334.070740 
	C52.447701,334.672699 52.941757,335.209656 53.743080,336.145508 
	C54.366077,336.639252 54.681816,336.734039 54.997551,336.828857 
	C55.712383,337.355194 56.427216,337.881561 57.315300,338.697510 
	C57.352489,339.778717 56.813068,340.972565 57.140999,341.301392 
	C61.895287,346.068604 61.144779,352.336548 62.020752,358.595154 
	C61.458157,368.205200 61.347866,377.491913 59.934879,386.576019 
	C58.991959,392.638031 56.193974,398.411499 54.000820,404.854736 
	C53.752254,405.562317 53.729069,405.729218 53.705887,405.896118 
	C53.307632,406.322571 52.909367,406.749054 52.425308,407.461731 
	C51.605629,408.655762 50.871742,409.563660 49.788025,410.901184 
	C48.221806,412.731812 47.005421,414.132782 45.789028,415.533752 
	C42.114956,417.678284 38.440887,419.822815 34.356712,421.570190 
	C32.743740,420.099243 31.540874,419.025452 30.338017,417.951660 
z"/>
<path fill="#131615" opacity="1.000000" stroke="none" 
	d="
M45.071846,285.199219 
	C45.575474,283.856079 45.994652,282.864197 46.413830,281.872314 
	C46.703846,281.956390 46.993862,282.040466 47.283878,282.124542 
	C46.886349,284.669647 46.488823,287.214783 46.091297,289.759888 
	C45.440311,289.634216 44.789330,289.508545 44.138344,289.382874 
	C44.421364,288.105408 44.704380,286.827942 45.071846,285.199219 
z"/>
<path fill="#131615" opacity="1.000000" stroke="none" 
	d="
M27.936167,357.080688 
	C28.807531,357.664398 29.401289,358.410980 30.056938,359.442871 
	C29.441257,360.359192 28.763685,360.990265 28.086121,361.621338 
	C27.727020,360.979309 27.367910,360.337250 27.003944,359.348206 
	C27.218912,358.415344 27.438736,357.829468 27.936167,357.080688 
z"/>
<path fill="#131615" opacity="1.000000" stroke="none" 
	d="
M69.784012,232.749985 
	C69.963768,233.565628 69.919136,234.112701 69.746643,234.906616 
	C68.496071,234.718323 67.373360,234.283142 66.250656,233.847961 
	C66.298676,233.392441 66.346695,232.936920 66.394714,232.481400 
	C67.449684,232.481400 68.504654,232.481400 69.784012,232.749985 
z"/>
<path fill="#131615" opacity="1.000000" stroke="none" 
	d="
M24.995071,359.647827 
	C24.554628,360.003082 24.110601,360.002502 23.333555,360.001587 
	C23.000534,358.727173 23.000534,357.453125 23.000534,356.179077 
	C23.293854,356.095154 23.587173,356.011230 23.880493,355.927307 
	C24.250824,357.048859 24.621157,358.170410 24.995071,359.647827 
z"/>
<path fill="#131615" opacity="1.000000" stroke="none" 
	d="
M70.593109,251.017410 
	C69.778603,251.213028 69.016548,251.087463 68.254486,250.961899 
	C68.342178,250.526108 68.429878,250.090302 68.517570,249.654510 
	C69.226891,250.001755 69.936218,250.348999 70.593109,251.017410 
z"/>
<path fill="#131615" opacity="1.000000" stroke="none" 
	d="
M56.078506,264.118896 
	C55.789860,264.994843 55.124672,265.834839 54.170300,266.819092 
	C52.296600,264.617859 53.552807,264.068176 56.078506,264.118896 
z"/>
<path fill="#131615" opacity="1.000000" stroke="none" 
	d="
M41.696728,317.476562 
	C42.448547,317.470734 42.982128,317.675262 43.515705,317.879791 
	C43.381355,318.153046 43.247009,318.426270 43.112671,318.699524 
	C42.567944,318.362000 42.023216,318.024445 41.696728,317.476562 
z"/>
<path fill="#131615" opacity="1.000000" stroke="none" 
	d="
M31.141037,336.113464 
	C30.605064,335.910217 29.959202,335.589539 29.313339,335.268860 
	C29.467907,335.028137 29.622477,334.787415 29.777046,334.546692 
	C30.205681,334.910767 30.634315,335.274841 31.149986,335.940460 
	C31.237022,336.242004 31.031145,335.996063 31.141037,336.113464 
z"/>
<path fill="#131615" opacity="1.000000" stroke="none" 
	d="
M49.537418,269.388184 
	C49.652729,268.941772 49.933929,268.668121 50.233013,268.415680 
	C50.240677,268.409180 50.444225,268.634735 50.556431,268.752045 
	C50.272846,269.022614 49.989254,269.293182 49.537418,269.388184 
z"/>
<path fill="#131615" opacity="1.000000" stroke="none" 
	d="
M26.000130,323.000000 
	C26.332716,323.622467 26.665173,324.244934 26.997629,324.867401 
	C26.760645,324.945587 26.523663,325.023773 26.286680,325.101959 
	C26.191921,324.598572 26.097162,324.095184 26.001049,323.295898 
	C25.999695,323.000000 26.000000,323.000000 26.000130,323.000000 
z"/>
<path fill="#1B1C1B" opacity="1.000000" stroke="none" 
	d="
M24.686157,348.920807 
	C24.717474,349.468414 24.591549,349.856079 24.465626,350.243774 
	C24.360411,350.137299 24.150173,350.007629 24.167698,349.928284 
	C24.255259,349.531921 24.402599,349.148712 24.686157,348.920807 
z"/>
<path fill="#131615" opacity="1.000000" stroke="none" 
	d="
M63.310211,224.074814 
	C63.278702,223.529510 63.405552,223.142761 63.532406,222.756027 
	C63.638199,222.861694 63.849476,222.990967 63.832005,223.069046 
	C63.743534,223.464462 63.595642,223.846588 63.310211,224.074814 
z"/>
<path fill="#1B1C1B" opacity="1.000000" stroke="none" 
	d="
M14.240163,335.977600 
	C14.111882,335.665863 14.296461,335.410095 14.782173,335.111328 
	C14.821537,335.328766 14.644775,335.650513 14.240163,335.977600 
z"/>
<path fill="#131615" opacity="1.000000" stroke="none" 
	d="
M39.752258,329.988708 
	C39.588196,330.096924 39.422813,330.043762 39.257431,329.990601 
	C39.421932,329.936188 39.586441,329.881744 39.752258,329.988708 
z"/>
<path fill="#131615" opacity="1.000000" stroke="none" 
	d="
M51.999924,312.000000 
	C51.751797,311.653320 51.503742,311.306641 51.255692,310.959961 
	C51.378647,310.873840 51.501595,310.787720 51.624538,310.701569 
	C51.741104,310.975159 51.857674,311.248749 51.987198,311.761169 
	C52.000153,312.000000 52.000000,312.000000 51.999924,312.000000 
z"/>
<path fill="#131615" opacity="1.000000" stroke="none" 
	d="
M28.988995,319.247528 
	C29.097296,319.411591 29.044085,319.577118 28.990868,319.742615 
	C28.936403,319.578064 28.881941,319.413513 28.988995,319.247528 
z"/>
<path fill="#131615" opacity="1.000000" stroke="none" 
	d="
M55.642624,239.746338 
	C55.627914,239.992310 55.495899,240.126358 55.363884,240.260391 
	C55.417694,240.051727 55.471504,239.843048 55.642624,239.746338 
z"/>
<path fill="#131615" opacity="1.000000" stroke="none" 
	d="
M47.358055,266.253662 
	C47.372765,266.007843 47.504791,265.873871 47.636810,265.739899 
	C47.582996,265.948425 47.529186,266.156982 47.358055,266.253662 
z"/>
<path fill="#131615" opacity="1.000000" stroke="none" 
	d="
M72.468719,253.451096 
	C72.523041,253.418976 72.414406,253.483215 72.468719,253.451096 
z"/>
<path fill="#131615" opacity="1.000000" stroke="none" 
	d="
M50.468384,302.451111 
	C50.522545,302.418945 50.414219,302.483246 50.468384,302.451111 
z"/>
<path fill="#131615" opacity="1.000000" stroke="none" 
	d="
M47.531158,291.548828 
	C47.476871,291.581055 47.585449,291.516602 47.531158,291.548828 
z"/>
<path fill="#1B1C1B" opacity="1.000000" stroke="none" 
	d="
M22.546095,340.469849 
	C22.577833,340.523865 22.514357,340.415802 22.546095,340.469849 
z"/>
<path fill="#131615" opacity="1.000000" stroke="none" 
	d="
M56.468159,242.451050 
	C56.522335,242.418930 56.413982,242.483170 56.468159,242.451050 
z"/>
<path fill="#131615" opacity="1.000000" stroke="none" 
	d="
M33.468567,318.451294 
	C33.522976,318.419098 33.414162,318.483521 33.468567,318.451294 
z"/>
<path fill="#131615" opacity="1.000000" stroke="none" 
	d="
M67.531921,240.549164 
	C67.477486,240.581375 67.586357,240.516953 67.531921,240.549164 
z"/>
<path fill="#131615" opacity="1.000000" stroke="none" 
	d="
M57.451283,239.530884 
	C57.419277,239.476715 57.483288,239.585052 57.451283,239.530884 
z"/>
<path fill="#F7F7F7" opacity="1.000000" stroke="none" 
	d="
M28.331942,474.861084 
	C24.858700,467.670502 23.903008,460.385315 27.839748,452.362732 
	C28.747057,450.853577 29.322691,449.910522 29.898325,448.967438 
	C34.405006,446.444244 38.911694,443.921051 43.637581,441.040405 
	C43.856781,440.682953 43.896400,440.657135 43.896400,440.657166 
	C46.653915,441.121613 49.411434,441.586060 52.710220,442.146759 
	C53.251492,442.242981 53.597103,442.181610 53.597107,442.181610 
	C54.832539,443.107727 56.067966,444.033844 57.616165,445.078308 
	C57.793541,446.373871 58.097328,448.185333 57.454838,448.630219 
	C50.996861,453.102112 50.585617,455.533112 55.630260,461.570190 
	C47.260216,469.711578 48.007587,474.136200 58.306946,477.416840 
	C55.027313,484.326599 48.053570,486.360199 38.127338,482.871460 
	C35.979637,481.756531 34.465668,480.886749 32.816494,479.727234 
	C31.231508,477.912048 29.781727,476.386566 28.331942,474.861084 
z"/>
<path fill="#EBECE9" opacity="1.000000" stroke="none" 
	d="
M51.389069,542.120056 
	C51.756218,542.107849 51.851749,542.578430 51.774723,543.106995 
	C51.422226,545.758423 51.146755,547.881287 50.673767,550.230347 
	C49.954792,551.293396 49.433342,552.130249 48.911880,552.967102 
	C40.801479,555.190735 36.674679,552.579407 37.579842,545.421570 
	C37.845173,543.323364 39.261017,540.268555 40.868450,539.705872 
	C43.160179,538.903625 46.137356,539.870789 48.772934,540.350464 
	C49.603176,540.501587 50.276680,541.514038 51.389069,542.120056 
z"/>
<path fill="#131716" opacity="1.000000" stroke="none" 
	d="
M32.951698,480.016968 
	C34.465668,480.886749 35.979637,481.756531 37.743286,482.840759 
	C35.960041,483.963623 33.927120,484.872040 31.445627,485.980927 
	C31.137852,487.031799 30.662840,488.653687 30.187826,490.275604 
	C30.022894,485.682648 22.639076,485.836395 24.026766,480.334290 
	C24.000000,480.000000 24.000135,480.000000 24.259624,479.830139 
	C27.329975,479.779205 30.140835,479.898071 32.951698,480.016968 
z"/>
<path fill="#171712" opacity="1.000000" stroke="none" 
	d="
M50.871300,550.004150 
	C51.146755,547.881287 51.422226,545.758423 51.879349,543.323120 
	C53.714207,545.166016 55.367413,547.321411 57.450916,550.037842 
	C57.811962,547.558716 58.098885,545.588501 58.445126,543.210999 
	C60.079865,546.146057 61.501339,548.698242 62.926361,551.256775 
	C60.197487,552.274719 56.934181,553.492065 53.336296,554.857117 
	C52.834629,555.003906 52.667545,555.002930 52.250229,555.000977 
	C52.000000,555.000000 51.999237,555.000000 51.999237,555.000000 
	C52.000591,554.251465 52.001945,553.502930 52.234459,552.196533 
	C51.934181,551.093811 51.402744,550.548950 50.871300,550.004150 
z"/>
<path fill="#1E1E19" opacity="1.000000" stroke="none" 
	d="
M51.848560,561.369385 
	C51.585472,562.275269 51.245037,562.858215 50.904594,563.441101 
	C50.634224,562.943176 50.363853,562.445190 50.093468,561.947266 
	C50.652706,561.646973 51.211960,561.346741 51.848560,561.369385 
z"/>
<path fill="#1E1E19" opacity="1.000000" stroke="none" 
	d="
M50.673775,550.230347 
	C51.402744,550.548950 51.934181,551.093811 52.236664,551.822266 
	C51.194668,552.317810 50.381618,552.629700 49.240231,552.954346 
	C49.433342,552.130249 49.954792,551.293396 50.673775,550.230347 
z"/>
<path fill="#131716" opacity="1.000000" stroke="none" 
	d="
M23.999931,480.000000 
	C23.361637,479.546814 22.723413,479.093628 22.042519,478.320221 
	C21.999847,478.000000 22.000000,478.000000 22.320717,478.040771 
	C23.094334,478.721039 23.547234,479.360504 24.000134,480.000000 
	C24.000135,480.000000 24.000000,480.000000 23.999931,480.000000 
z"/>
<path fill="#1E1E19" opacity="1.000000" stroke="none" 
	d="
M51.999603,555.000000 
	C51.090588,555.376221 50.181961,555.752380 49.273335,556.128540 
	C49.180492,555.855530 49.087650,555.582520 48.994808,555.309509 
	C49.771660,555.206360 50.548508,555.103149 51.662300,555.000000 
	C51.999237,555.000000 52.000000,555.000000 51.999603,555.000000 
z"/>
<path fill="#131716" opacity="1.000000" stroke="none" 
	d="
M26.592167,490.339020 
	C26.701290,490.091003 26.876715,489.873505 27.052135,489.656006 
	C27.059645,489.846100 27.067160,490.036194 26.901814,490.361877 
	C26.728952,490.497467 26.658470,490.369568 26.592167,490.339020 
z"/>
<path fill="#1A1B19" opacity="1.000000" stroke="none" 
	d="
M24.259624,479.830139 
	C23.547234,479.360504 23.094334,478.721039 22.320793,478.040771 
	C22.137842,476.778931 22.275530,475.557861 22.416950,474.303680 
	C24.455805,474.616699 26.118174,474.871918 28.056244,474.994110 
	C29.781727,476.386566 31.231508,477.912048 32.816490,479.727234 
	C30.140835,479.898071 27.329975,479.779205 24.259624,479.830139 
z"/>
<path fill="#1A1B19" opacity="1.000000" stroke="none" 
	d="
M45.976418,415.853821 
	C47.005421,414.132782 48.221806,412.731812 49.718773,411.187317 
	C49.341324,413.217743 51.292446,417.342468 45.976418,415.853821 
z"/>
<path fill="#DCDDD9" opacity="1.000000" stroke="none" 
	d="
M30.268982,418.301147 
	C31.540874,419.025452 32.743740,420.099243 33.989376,421.488220 
	C33.012016,421.336945 31.991882,420.870483 30.752209,420.217255 
	C30.421766,419.570557 30.310860,419.110626 30.268982,418.301147 
z"/>
<path fill="#1A1B19" opacity="1.000000" stroke="none" 
	d="
M29.527430,448.981567 
	C29.322691,449.910522 28.747057,450.853577 27.971157,451.990234 
	C27.332129,451.642761 26.893364,451.101685 26.454592,450.560608 
	C27.355234,450.039001 28.255882,449.517365 29.527430,448.981567 
z"/>
<path fill="#1A1B19" opacity="1.000000" stroke="none" 
	d="
M53.894333,442.009521 
	C53.597103,442.181610 53.251492,442.242981 53.125645,442.120636 
	C53.410076,441.172485 53.820351,440.346680 54.230637,439.520874 
	C54.217613,440.293060 54.204586,441.065216 53.894333,442.009521 
z"/>
<path fill="#1A1B19" opacity="1.000000" stroke="none" 
	d="
M44.168678,440.377869 
	C43.896400,440.657135 43.856781,440.682953 43.834671,440.728333 
	C43.712502,440.165009 43.587906,439.557739 43.550915,438.945190 
	C43.547276,438.884918 44.080986,438.792175 44.365288,438.714539 
	C44.390514,439.175903 44.415737,439.637238 44.168678,440.377869 
z"/>
<path fill="#1A1B19" opacity="1.000000" stroke="none" 
	d="
M46.397491,433.954681 
	C46.791634,433.714264 47.183765,433.716003 47.573696,433.746216 
	C47.584682,433.747070 47.572208,434.051025 47.570675,434.213623 
	C47.178841,434.209351 46.787006,434.205109 46.397491,433.954681 
z"/>
<path fill="#1A1B19" opacity="1.000000" stroke="none" 
	d="
M48.463100,422.611877 
	C48.347561,423.058838 48.065979,423.332855 47.766521,423.585693 
	C47.758896,423.592163 47.555157,423.366394 47.442863,423.248901 
	C47.726810,422.977997 48.010761,422.707062 48.463100,422.611877 
z"/>
<path fill="#1A1B19" opacity="1.000000" stroke="none" 
	d="
M56.000237,435.000000 
	C55.698513,435.509094 55.396553,436.018188 55.094578,436.527283 
	C54.885353,436.346191 54.676140,436.165070 54.466927,435.983978 
	C54.788662,435.679352 55.110394,435.374695 55.715836,435.035034 
	C55.999542,435.000000 56.000000,435.000000 56.000237,435.000000 
z"/>
<path fill="#1A1B19" opacity="1.000000" stroke="none" 
	d="
M23.600029,453.274597 
	C23.441456,453.148804 23.418692,452.931580 23.395922,452.714325 
	C23.509222,452.870605 23.622532,453.026886 23.600029,453.274597 
z"/>
<path fill="#1A1B19" opacity="1.000000" stroke="none" 
	d="
M22.467823,456.449646 
	C22.523014,456.416443 22.412634,456.482880 22.467823,456.449646 
z"/>
<path fill="#1A1B19" opacity="1.000000" stroke="none" 
	d="
M23.468039,460.450989 
	C23.522232,460.418671 23.413845,460.483307 23.468039,460.450989 
z"/>
<path fill="#1A1B19" opacity="1.000000" stroke="none" 
	d="
M58.893944,573.082458 
	C58.440582,573.768433 57.598713,574.431763 56.419189,575.158630 
	C56.889503,574.501343 57.697468,573.780640 58.893944,573.082458 
z"/>
<path fill="#131716" opacity="1.000000" stroke="none" 
	d="
M53.899597,405.870300 
	C53.729069,405.729218 53.752254,405.562317 53.940613,405.204071 
	C54.212330,405.226105 54.328423,405.435944 54.409649,405.658508 
	C54.417221,405.679230 54.204018,405.780579 53.899597,405.870300 
z"/>
<path fill="#131716" opacity="1.000000" stroke="none" 
	d="
M57.532913,404.550903 
	C57.477531,404.583984 57.588295,404.517792 57.532913,404.550903 
z"/>
<path fill="#0E0F0F" opacity="1.000000" stroke="none" 
	d="
M27.993666,411.993652 
	C28.115702,411.558502 28.243299,411.128937 28.370899,410.699402 
	C28.387344,411.052399 28.403788,411.405396 28.215508,411.882904 
	C28.010782,412.007416 27.999228,411.999268 27.993666,411.993652 
z"/>
<path fill="#212220" opacity="1.000000" stroke="none" 
	d="
M54.867104,336.637634 
	C54.681816,336.734039 54.366077,336.639252 53.995155,336.272827 
	C54.255726,336.059845 54.521290,336.208252 54.867104,336.637634 
z"/>
</svg>