<svg version="1.1" id="Layer_1" xmlns="http://www.w3.org/2000/svg" xmlns:xlink="http://www.w3.org/1999/xlink" x="0px" y="0px"
	 width="100%" viewBox="0 0 105 600" enable-background="new 0 0 105 600" xml:space="preserve">
<path fill="#000000" opacity="1.000000" stroke="none" 
	d="
M1.000000,255.000000 
	C1.000000,170.000000 1.000000,85.500000 1.000000,1.000000 
	C36.000000,1.000000 71.000000,1.000000 106.000000,1.000000 
	C106.000000,201.000000 106.000000,401.000000 106.000000,601.000000 
	C71.000000,601.000000 36.000000,601.000000 1.000000,601.000000 
	C1.000000,485.833344 1.000000,370.666656 1.000000,255.000000 
M56.781902,515.540161 
	C56.567650,515.262329 56.353397,514.984497 55.984467,514.283020 
	C55.081921,509.125671 56.864971,507.108551 61.878132,507.619110 
	C62.375221,507.669708 62.908436,507.886505 63.360367,507.771851 
	C65.625343,507.197327 68.173958,506.973175 69.978882,505.707458 
	C70.768456,505.153809 70.664246,501.391571 69.839882,500.871613 
	C68.105507,499.777679 65.640038,499.661133 63.450798,499.524048 
	C61.481407,499.400757 59.438030,500.096771 57.508167,499.835083 
	C56.269104,499.667053 55.176510,498.418945 54.018238,497.655029 
	C54.785240,496.501221 55.406036,495.208984 56.344696,494.217712 
	C60.279537,490.062256 65.004539,486.456268 68.104622,481.766266 
	C71.063278,477.290131 71.778839,471.822144 67.824654,466.825836 
	C65.508842,463.899719 65.479500,461.120453 68.339211,457.963562 
	C73.615608,452.138855 72.679405,445.250702 66.544106,440.096588 
	C65.271973,439.027893 64.058250,437.881012 62.891350,436.697449 
	C60.505333,434.277374 60.305565,431.935852 62.889423,429.364502 
	C65.362198,426.903687 67.607307,424.206451 69.865891,421.539795 
	C73.607666,417.121796 73.080276,415.661469 67.492676,414.396515 
	C66.762886,414.231293 66.137772,413.603668 65.107582,412.971344 
	C68.161880,408.162537 71.073311,403.578674 74.294228,398.683777 
	C74.413277,398.005493 74.532333,397.327209 74.651382,396.648926 
	C74.344101,396.642212 74.036819,396.635498 73.729538,396.628784 
	C73.834465,397.429718 73.939384,398.230621 73.387215,398.818390 
	C69.981911,396.402924 66.778320,394.235626 67.435585,388.961670 
	C68.622871,379.434875 69.991440,369.798584 69.716026,360.253296 
	C69.326912,346.767303 66.766884,333.493988 60.741550,320.388092 
	C59.869259,318.415833 59.313328,316.213226 58.072464,314.509369 
	C50.913395,304.679047 48.734486,293.613403 48.759830,281.673004 
	C48.787758,268.515656 60.170700,258.036194 73.370728,259.662628 
	C75.178459,259.885376 77.103226,260.143585 78.829521,259.750977 
	C80.395332,259.394836 81.764252,258.173035 83.219978,257.332916 
	C82.130249,256.021240 81.281685,254.294220 79.897133,253.490280 
	C77.517509,252.108582 74.803612,251.302582 71.491409,249.954239 
	C76.401505,245.857498 76.076759,242.415146 71.496094,239.041809 
	C70.601646,238.383102 70.406548,236.328568 70.443733,234.932617 
	C70.567467,230.287415 70.760643,225.628830 71.267464,221.012726 
	C71.980598,214.517471 70.497993,208.823517 66.002678,203.472336 
	C66.000885,203.296036 65.999100,203.119736 66.024994,202.757111 
	C66.041298,202.572754 66.030670,202.389786 65.827042,201.480682 
	C64.520226,199.000336 63.620968,196.167587 61.834732,194.101776 
	C54.802612,185.968918 52.451469,175.687164 49.881821,165.923218 
	C47.517532,156.939590 47.738182,147.226868 47.254883,137.813004 
	C46.891697,130.738815 49.925575,128.526031 56.692451,130.153381 
	C60.412971,131.048141 61.878132,129.683945 60.852306,126.031860 
	C60.271095,123.962669 59.491699,121.877739 58.403889,120.034592 
	C53.624386,111.936386 50.430363,103.423660 50.422245,93.856506 
	C50.408470,77.617371 50.176109,61.378174 50.207504,45.139339 
	C50.221325,37.989960 50.942413,30.835011 50.782845,23.695095 
	C50.700382,20.005426 48.418980,16.340860 44.442543,16.647505 
	C40.229664,16.972380 39.526131,21.036219 39.704166,24.744381 
	C40.067875,32.319717 41.125843,39.911854 40.844658,47.457825 
	C40.214100,64.379379 39.394218,81.322220 37.716843,98.163307 
	C36.985676,105.504288 34.513416,112.829758 31.843016,119.782471 
	C27.893244,130.066208 27.517982,129.922073 37.998558,129.002380 
	C37.998558,129.002380 37.979321,129.030731 37.959854,129.744995 
	C37.951912,130.459442 37.943970,131.173889 37.919609,132.832001 
	C37.945114,139.580658 37.970619,146.329300 37.935280,153.709869 
	C38.119461,158.775055 38.192101,163.848038 38.545273,168.901413 
	C38.677925,170.799408 39.301006,172.712784 39.982075,174.512619 
	C41.472206,178.450546 39.438869,182.804916 36.031521,182.911743 
	C34.696785,182.953598 33.378696,183.526474 32.053028,183.857513 
	C32.484303,185.218948 32.564655,186.873077 33.411266,187.888077 
	C36.184380,191.212753 35.294182,193.390411 31.909384,195.524246 
	C29.967319,196.748535 28.417017,198.594269 26.690348,200.160233 
	C26.879185,200.618347 27.068024,201.076447 27.256861,201.534561 
	C28.942757,201.711685 30.668777,202.210236 32.307026,202.005707 
	C37.225834,201.391678 42.051247,200.755493 46.518440,203.790848 
	C49.638512,205.910858 52.868797,207.868652 56.380711,210.359848 
	C60.627720,218.011078 60.185768,226.128128 57.610897,233.932190 
	C56.393913,237.620697 52.608627,240.379257 50.697311,243.940414 
	C47.751858,249.428360 45.364758,255.220840 42.833515,260.925293 
	C35.844284,276.676331 33.737278,292.830536 38.650124,309.645660 
	C39.970764,314.165802 39.084736,314.789673 34.326126,314.294312 
	C29.422127,313.783813 24.476610,313.458557 20.039669,316.400757 
	C24.128439,325.251465 25.216173,325.111786 17.067083,330.086426 
	C14.095160,331.900635 11.297997,334.042297 8.619915,336.273224 
	C7.739732,337.006439 6.888086,338.638031 7.121628,339.589203 
	C7.334484,340.456116 9.076699,341.574585 10.072164,341.507233 
	C13.335551,341.286621 16.565845,340.576508 19.958128,340.671295 
	C19.839941,341.638245 19.915422,342.680450 19.573383,343.560394 
	C16.405706,351.709717 19.388388,362.088379 26.682148,366.916199 
	C30.396862,369.375000 33.362915,371.755310 31.136616,376.770142 
	C30.822895,377.476837 31.139286,378.436462 30.989386,379.246735 
	C29.236557,388.721954 28.677031,398.651825 25.339485,407.536407 
	C21.759443,417.066620 15.490655,425.575287 10.567050,434.623260 
	C9.720969,436.178101 8.914627,438.653564 9.590260,439.871490 
	C10.202757,440.975616 12.865621,441.348328 14.618388,441.333282 
	C18.855682,441.296875 20.376772,443.157227 19.183687,447.251373 
	C18.639452,449.118927 18.434597,451.085358 17.716194,453.487488 
	C17.560726,453.780914 17.295961,454.063446 17.265491,454.369354 
	C15.805911,469.021912 17.539381,482.707397 28.860361,493.629883 
	C29.919970,494.652161 30.936832,496.673248 30.618406,497.869995 
	C30.359581,498.842804 28.129053,499.551727 26.662107,499.875183 
	C24.901472,500.263458 22.820051,499.657257 21.257753,500.345123 
	C19.909168,500.938934 18.585340,502.628693 18.264385,504.061096 
	C18.112682,504.738129 20.192858,506.343719 21.515078,506.809296 
	C23.017221,507.338287 24.871881,506.798401 26.445566,507.210693 
	C28.073557,507.637207 30.302082,508.291748 30.876755,509.505310 
	C31.444494,510.704193 30.569193,512.886353 29.783777,514.344666 
	C28.940689,515.910095 27.732241,517.751831 26.221218,518.406372 
	C17.613146,522.135010 15.567055,530.330505 12.856558,537.882446 
	C8.480969,550.073608 12.403333,561.025085 20.745615,569.687683 
	C28.752592,578.002136 39.283726,581.201782 51.726788,577.858887 
	C56.228374,575.840088 61.468452,574.697815 65.095833,571.641541 
	C76.928673,561.671570 80.587212,549.160583 74.667099,534.133606 
	C72.541077,528.737183 67.577820,524.363220 63.526615,519.867554 
	C61.909458,518.073059 59.257725,517.210754 57.040321,515.946045 
	C57.040321,515.946045 57.055710,515.985901 56.781902,515.540161 
z"/>
<path fill="#161815" opacity="1.000000" stroke="none" 
	d="
M73.984741,398.994812 
	C71.073311,403.578674 68.161880,408.162537 65.107582,412.971344 
	C66.137772,413.603668 66.762886,414.231293 67.492676,414.396515 
	C73.080276,415.661469 73.607666,417.121796 69.865891,421.539795 
	C67.607307,424.206451 65.362198,426.903687 62.889423,429.364502 
	C60.305565,431.935852 60.505333,434.277374 62.891350,436.697449 
	C64.058250,437.881012 65.271973,439.027893 66.544106,440.096588 
	C72.679405,445.250702 73.615608,452.138855 68.339211,457.963562 
	C65.479500,461.120453 65.508842,463.899719 67.824654,466.825836 
	C71.778839,471.822144 71.063278,477.290131 68.104622,481.766266 
	C65.004539,486.456268 60.279537,490.062256 56.344696,494.217712 
	C55.406036,495.208984 54.785240,496.501221 54.018250,497.655029 
	C55.176510,498.418945 56.269104,499.667053 57.508167,499.835083 
	C59.438030,500.096771 61.481407,499.400757 63.450798,499.524048 
	C65.640038,499.661133 68.105507,499.777679 69.839882,500.871613 
	C70.664246,501.391571 70.768456,505.153809 69.978882,505.707458 
	C68.173958,506.973175 65.625343,507.197327 63.360367,507.771851 
	C62.908436,507.886505 62.375221,507.669708 61.878132,507.619110 
	C56.864971,507.108551 55.081921,509.125671 56.112221,514.654541 
	C56.511883,515.346008 56.783794,515.665955 57.055710,515.985901 
	C57.055710,515.985901 57.040321,515.946045 56.905403,516.234375 
	C55.682713,518.017090 54.594940,519.511414 53.051834,521.631226 
	C51.975483,519.169739 51.301308,517.627930 50.537670,515.881592 
	C46.248207,517.886047 45.200108,520.207947 47.229172,524.590393 
	C48.551739,527.446838 53.236748,529.717590 49.842934,533.707764 
	C46.840134,530.419373 46.840134,530.419373 44.151165,532.042114 
	C44.325294,532.315735 44.459045,532.769714 44.690792,532.827026 
	C46.450115,533.261658 48.228630,533.618591 50.062218,534.353210 
	C50.984894,536.437683 52.254364,538.089294 52.610909,539.918701 
	C53.124100,542.551880 52.973362,545.314514 53.078732,547.754456 
	C53.034351,547.308655 53.017216,547.130310 52.886047,546.709717 
	C52.525032,545.993347 52.278053,545.519165 51.900032,544.817505 
	C49.580746,541.449768 47.554314,537.939453 42.988522,538.278809 
	C39.321728,538.551331 36.510895,542.242920 36.541595,546.487244 
	C36.570541,550.490234 38.549522,553.080688 42.521019,553.935425 
	C44.292892,554.316772 46.108955,554.492798 48.162056,554.983826 
	C50.276962,556.519531 52.134769,557.833435 54.881168,559.775818 
	C49.511242,561.469482 48.181683,563.906250 50.264786,566.717224 
	C53.074276,570.508301 52.075241,574.131958 51.013397,577.955994 
	C39.283726,581.201782 28.752592,578.002136 20.745615,569.687683 
	C12.403333,561.025085 8.480969,550.073608 12.856558,537.882446 
	C15.567055,530.330505 17.613146,522.135010 26.221218,518.406372 
	C27.732241,517.751831 28.940689,515.910095 29.783777,514.344666 
	C30.569193,512.886353 31.444494,510.704193 30.876755,509.505310 
	C30.302082,508.291748 28.073557,507.637207 26.445566,507.210693 
	C24.871881,506.798401 23.017221,507.338287 21.515078,506.809296 
	C20.192858,506.343719 18.112682,504.738129 18.264385,504.061096 
	C18.585340,502.628693 19.909168,500.938934 21.257753,500.345123 
	C22.820051,499.657257 24.901472,500.263458 26.662107,499.875183 
	C28.129053,499.551727 30.359581,498.842804 30.618406,497.869995 
	C30.936832,496.673248 29.919970,494.652161 28.860361,493.629883 
	C17.539381,482.707397 15.805911,469.021912 17.265491,454.369354 
	C17.295961,454.063446 17.560726,453.780914 18.246258,453.178406 
	C21.173323,450.999725 23.763086,449.326416 25.917734,447.210083 
	C28.517290,444.656738 30.641689,441.435577 34.844681,444.256592 
	C34.409199,444.901123 34.164009,445.389557 33.768597,445.649384 
	C25.881855,450.831146 23.335911,458.362244 24.852005,467.258667 
	C26.360094,476.108063 33.876301,483.297668 42.501438,484.899994 
	C48.076183,485.935638 54.144577,483.095886 56.764191,478.002838 
	C55.557976,477.248444 53.974625,476.736206 53.178341,475.648010 
	C51.986694,474.019470 50.299198,471.750244 50.655418,470.165527 
	C52.236217,463.133148 54.007763,456.066254 56.630753,449.372589 
	C58.390648,444.881409 57.524128,443.195496 53.081520,442.481720 
	C55.589333,436.685577 54.054089,431.435699 51.825047,426.419281 
	C50.551975,423.554260 50.600903,421.512299 53.083828,419.448578 
	C59.058277,414.482727 59.828793,409.639099 56.097351,401.732880 
	C57.701889,394.555084 59.686489,387.833405 60.669754,380.968292 
	C61.654293,374.094299 61.599777,367.074280 62.084774,360.124146 
	C62.232929,358.001038 63.476299,355.587463 62.813641,353.839294 
	C60.201843,346.949097 59.230206,339.154816 53.174004,333.896088 
	C55.372284,333.714508 57.353432,333.714508 60.095814,333.714508 
	C59.981705,332.284393 59.605553,330.422455 59.742867,328.599213 
	C59.932301,326.083832 60.509190,323.597656 60.920120,321.098969 
	C66.766884,333.493988 69.326912,346.767303 69.716026,360.253296 
	C69.991440,369.798584 68.622871,379.434875 67.435585,388.961670 
	C66.778320,394.235626 69.981911,396.402924 73.700836,398.915192 
	C74.014465,399.011993 73.984749,398.994812 73.984741,398.994812 
M57.482620,438.481049 
	C57.482620,438.481049 57.487457,438.513977 57.482620,438.481049 
z"/>
<path fill="#0D0F0E" opacity="1.000000" stroke="none" 
	d="
M37.974319,129.021194 
	C27.517982,129.922073 27.893244,130.066208 31.843016,119.782471 
	C34.513416,112.829758 36.985676,105.504288 37.716843,98.163307 
	C39.394218,81.322220 40.214100,64.379379 40.844658,47.457825 
	C41.125843,39.911854 40.067875,32.319717 39.704166,24.744381 
	C39.526131,21.036219 40.229664,16.972380 44.442543,16.647505 
	C48.418980,16.340860 50.700382,20.005426 50.782845,23.695095 
	C50.942413,30.835011 50.221325,37.989960 50.207504,45.139339 
	C50.176109,61.378174 50.408470,77.617371 50.422245,93.856506 
	C50.430363,103.423660 53.624386,111.936386 58.403889,120.034592 
	C59.491699,121.877739 60.271095,123.962669 60.852306,126.031860 
	C61.878132,129.683945 60.412971,131.048141 56.692451,130.153381 
	C49.925575,128.526031 46.891697,130.738815 47.254883,137.813004 
	C47.738182,147.226868 47.517532,156.939590 49.881821,165.923218 
	C52.451469,175.687164 54.802612,185.968918 61.834732,194.101776 
	C63.620968,196.167587 64.520226,199.000336 65.912140,202.027130 
	C65.997238,202.573563 65.997307,202.943420 65.997307,202.943420 
	C65.999100,203.119736 66.000885,203.296036 65.773628,203.966797 
	C63.793476,208.742477 59.175533,208.017868 56.049850,209.898911 
	C52.868797,207.868652 49.638512,205.910858 46.518440,203.790848 
	C42.051247,200.755493 37.225834,201.391678 32.307026,202.005707 
	C30.668777,202.210236 28.942757,201.711685 27.256861,201.534561 
	C27.068024,201.076447 26.879185,200.618347 26.690348,200.160233 
	C28.417017,198.594269 29.967319,196.748535 31.909384,195.524246 
	C35.294182,193.390411 36.184380,191.212753 33.411266,187.888077 
	C32.564655,186.873077 32.484303,185.218948 32.053028,183.857513 
	C33.378696,183.526474 34.696785,182.953598 36.031521,182.911743 
	C39.438869,182.804916 41.472206,178.450546 39.982075,174.512619 
	C39.301006,172.712784 38.677925,170.799408 38.545273,168.901413 
	C38.192101,163.848038 38.119461,158.775055 37.976166,152.956802 
	C38.414963,149.592148 39.243095,146.958862 39.112724,144.373917 
	C38.902752,140.210632 42.116322,135.664978 37.936028,131.888336 
	C37.943970,131.173889 37.951912,130.459442 38.130356,129.282806 
	C38.541744,128.503632 38.782631,128.186630 39.023514,127.869644 
	C38.878601,127.791336 38.733688,127.713036 38.588776,127.634735 
	C38.383957,128.096893 38.179134,128.559036 37.974319,129.021194 
M40.468250,86.526688 
	C40.515244,86.158615 40.562237,85.790535 40.609230,85.422462 
	C40.491917,85.468109 40.276840,85.507721 40.273586,85.560410 
	C40.256046,85.844635 40.291039,86.132111 40.468250,86.526688 
M36.490417,187.983368 
	C36.490417,187.983368 36.515701,188.011108 36.490417,187.983368 
z"/>
<path fill="#0F1211" opacity="1.000000" stroke="none" 
	d="
M56.215279,210.129379 
	C59.175533,208.017868 63.793476,208.742477 65.772430,204.231293 
	C70.497993,208.823517 71.980598,214.517471 71.267464,221.012726 
	C70.760643,225.628830 70.567467,230.287415 70.443733,234.932617 
	C70.406548,236.328568 70.601646,238.383102 71.496094,239.041809 
	C76.076759,242.415146 76.401505,245.857498 71.491409,249.954239 
	C74.803612,251.302582 77.517509,252.108582 79.897133,253.490280 
	C81.281685,254.294220 82.130249,256.021240 83.219978,257.332916 
	C81.764252,258.173035 80.395332,259.394836 78.829521,259.750977 
	C77.103226,260.143585 75.178459,259.885376 73.370728,259.662628 
	C60.170700,258.036194 48.787758,268.515656 48.759830,281.673004 
	C48.734486,293.613403 50.913395,304.679047 58.072464,314.509369 
	C59.313328,316.213226 59.869259,318.415833 60.830833,320.743530 
	C60.509190,323.597656 59.932301,326.083832 59.742867,328.599213 
	C59.605553,330.422455 59.981705,332.284393 60.095814,333.714508 
	C57.353432,333.714508 55.372284,333.714508 52.883377,333.817261 
	C41.934772,329.105225 32.336071,332.095886 25.760571,341.934448 
	C23.568663,341.187256 21.688761,340.620880 19.808859,340.054504 
	C16.565845,340.576508 13.335551,341.286621 10.072164,341.507233 
	C9.076699,341.574585 7.334484,340.456116 7.121628,339.589203 
	C6.888086,338.638031 7.739732,337.006439 8.619915,336.273224 
	C11.297997,334.042297 14.095160,331.900635 17.067083,330.086426 
	C25.216173,325.111786 24.128439,325.251465 20.039669,316.400757 
	C24.476610,313.458557 29.422127,313.783813 34.326126,314.294312 
	C39.084736,314.789673 39.970764,314.165802 38.650124,309.645660 
	C33.737278,292.830536 35.844284,276.676331 42.833515,260.925293 
	C45.364758,255.220840 47.751858,249.428360 50.697311,243.940414 
	C52.608627,240.379257 56.393913,237.620697 57.610897,233.932190 
	C60.185768,226.128128 60.627720,218.011078 56.215279,210.129379 
M55.652500,323.103882 
	C55.904873,322.821472 56.157246,322.539093 56.409622,322.256653 
	C56.149883,322.133392 55.890141,322.010101 55.630383,321.886841 
	C55.550224,322.251160 55.470062,322.615479 55.652500,323.103882 
M37.295429,293.474487 
	C37.432068,293.175812 37.568707,292.877167 37.705334,292.578491 
	C37.590473,292.532013 37.475613,292.485535 37.360756,292.439026 
	C37.309982,292.720459 37.259205,293.001862 37.295429,293.474487 
z"/>
<path fill="#121513" opacity="1.000000" stroke="none" 
	d="
M19.883493,340.362915 
	C21.688761,340.620880 23.568663,341.187256 25.665712,342.318451 
	C23.893942,352.116455 26.870464,358.331879 35.038544,363.442719 
	C37.017315,364.680817 39.212673,367.258881 39.379848,369.373291 
	C39.793919,374.610291 39.847195,380.109131 38.678505,385.188232 
	C36.417301,395.015442 33.145439,404.607025 30.466522,414.344116 
	C29.977884,416.120178 29.546597,419.034302 30.457855,419.805634 
	C31.767220,420.913940 34.682350,421.339233 36.292721,420.636688 
	C40.194214,418.934448 43.737736,416.411713 47.630970,414.219818 
	C48.522762,412.778015 49.209114,411.336029 50.092525,409.625458 
	C52.205864,406.946594 54.122143,404.536346 56.038429,402.126099 
	C59.828793,409.639099 59.058277,414.482727 53.083828,419.448578 
	C50.600903,421.512299 50.551975,423.554260 51.825047,426.419281 
	C54.054089,431.435699 55.589333,436.685577 52.703995,442.405853 
	C46.354053,441.185394 40.559597,441.311951 34.965031,443.994049 
	C30.641689,441.435577 28.517290,444.656738 25.917734,447.210083 
	C23.763086,449.326416 21.173323,450.999725 18.426067,452.938141 
	C18.434597,451.085358 18.639452,449.118927 19.183687,447.251373 
	C20.376772,443.157227 18.855682,441.296875 14.618388,441.333282 
	C12.865621,441.348328 10.202757,440.975616 9.590260,439.871490 
	C8.914627,438.653564 9.720969,436.178101 10.567050,434.623260 
	C15.490655,425.575287 21.759443,417.066620 25.339485,407.536407 
	C28.677031,398.651825 29.236557,388.721954 30.989386,379.246735 
	C31.139286,378.436462 30.822895,377.476837 31.136616,376.770142 
	C33.362915,371.755310 30.396862,369.375000 26.682148,366.916199 
	C19.388388,362.088379 16.405706,351.709717 19.573383,343.560394 
	C19.915422,342.680450 19.839941,341.638245 19.883493,340.362915 
M46.507561,435.702484 
	C46.909607,435.993042 47.311649,436.283630 47.713699,436.574188 
	C47.766453,436.149475 47.819206,435.724731 47.871964,435.300049 
	C47.428295,435.318787 46.984623,435.337555 46.507561,435.702484 
z"/>
<path fill="#1C1C17" opacity="1.000000" stroke="none" 
	d="
M49.999161,534.000427 
	C53.236748,529.717590 48.551739,527.446838 47.229172,524.590393 
	C45.200108,520.207947 46.248207,517.886047 50.537670,515.881592 
	C51.301308,517.627930 51.975483,519.169739 53.051834,521.631226 
	C54.594940,519.511414 55.682713,518.017090 56.923721,516.223450 
	C59.257725,517.210754 61.909458,518.073059 63.526615,519.867554 
	C67.577820,524.363220 72.541077,528.737183 74.667099,534.133606 
	C80.587212,549.160583 76.928673,561.671570 65.095833,571.641541 
	C61.468452,574.697815 56.228374,575.840088 51.370094,577.907471 
	C52.075241,574.131958 53.074276,570.508301 50.264786,566.717224 
	C48.181683,563.906250 49.511242,561.469482 54.881168,559.775818 
	C52.134769,557.833435 50.276962,556.519531 48.370129,554.743896 
	C49.916061,552.195435 51.511021,550.108643 53.105980,548.021851 
	C52.973362,545.314514 53.124100,542.551880 52.610909,539.918701 
	C52.254364,538.089294 50.984894,536.437683 50.061638,534.353333 
	C50.000000,534.000000 49.999161,534.000427 49.999161,534.000427 
M56.833149,544.826843 
	C56.833149,544.826843 56.645512,544.583313 56.645512,544.583313 
	C56.645512,544.583313 56.750179,544.872192 56.833149,544.826843 
M59.030754,551.021057 
	C59.030754,551.021057 58.996277,551.047363 59.030754,551.021057 
M52.959667,554.009949 
	C52.959667,554.009949 52.965069,553.967468 52.959667,554.009949 
z"/>
<path fill="#1C1C17" opacity="1.000000" stroke="none" 
	d="
M37.927818,132.360168 
	C42.116322,135.664978 38.902752,140.210632 39.112724,144.373917 
	C39.243095,146.958862 38.414963,149.592148 38.006592,152.640839 
	C37.970619,146.329300 37.945114,139.580658 37.927818,132.360168 
z"/>
<path fill="#161815" opacity="1.000000" stroke="none" 
	d="
M74.029388,399.021790 
	C73.939384,398.230621 73.834465,397.429718 73.729538,396.628784 
	C74.036819,396.635498 74.344101,396.642212 74.651382,396.648926 
	C74.532333,397.327209 74.413277,398.005493 74.139488,398.839294 
	C73.984749,398.994812 74.014465,399.011993 74.029388,399.021790 
z"/>
<path fill="#1C1C17" opacity="1.000000" stroke="none" 
	d="
M56.918804,515.763062 
	C56.783794,515.665955 56.511883,515.346008 56.189560,514.866333 
	C56.353397,514.984497 56.567650,515.262329 56.918804,515.763062 
z"/>
<path fill="#0F1211" opacity="1.000000" stroke="none" 
	d="
M66.011154,202.850266 
	C65.997307,202.943420 65.997238,202.573563 65.995171,202.390884 
	C66.030670,202.389786 66.041298,202.572754 66.011154,202.850266 
z"/>
<path fill="#000000" opacity="1.000000" stroke="none" 
	d="
M56.097343,401.732880 
	C54.122143,404.536346 52.205864,406.946594 49.898514,409.876282 
	C48.813473,411.670380 48.119503,412.945007 47.425529,414.219666 
	C43.737736,416.411713 40.194214,418.934448 36.292721,420.636688 
	C34.682350,421.339233 31.767220,420.913940 30.457855,419.805634 
	C29.546597,419.034302 29.977884,416.120178 30.466522,414.344116 
	C33.145439,404.607025 36.417301,395.015442 38.678505,385.188232 
	C39.847195,380.109131 39.793919,374.610291 39.379848,369.373291 
	C39.212673,367.258881 37.017315,364.680817 35.038544,363.442719 
	C26.870464,358.331879 23.893942,352.116455 25.977718,342.499237 
	C32.336071,332.095886 41.934772,329.105225 52.666241,333.998840 
	C59.230206,339.154816 60.201843,346.949097 62.813641,353.839294 
	C63.476299,355.587463 62.232929,358.001038 62.084774,360.124146 
	C61.599777,367.074280 61.654293,374.094299 60.669754,380.968292 
	C59.686489,387.833405 57.701889,394.555084 56.097343,401.732880 
z"/>
<path fill="#000000" opacity="1.000000" stroke="none" 
	d="
M34.844681,444.256592 
	C40.559597,441.311951 46.354053,441.185394 52.649738,442.716156 
	C57.524128,443.195496 58.390648,444.881409 56.630753,449.372589 
	C54.007763,456.066254 52.236217,463.133148 50.655418,470.165527 
	C50.299198,471.750244 51.986694,474.019470 53.178341,475.648010 
	C53.974625,476.736206 55.557976,477.248444 56.764191,478.002838 
	C54.144577,483.095886 48.076183,485.935638 42.501438,484.899994 
	C33.876301,483.297668 26.360094,476.108063 24.852005,467.258667 
	C23.335911,458.362244 25.881855,450.831146 33.768597,445.649384 
	C34.164009,445.389557 34.409199,444.901123 34.844681,444.256592 
M50.487400,466.519348 
	C50.487400,466.519348 50.512287,466.521606 50.487400,466.519348 
z"/>
<path fill="#000000" opacity="1.000000" stroke="none" 
	d="
M53.078732,547.754456 
	C51.511021,550.108643 49.916061,552.195435 48.113029,554.522095 
	C46.108955,554.492798 44.292892,554.316772 42.521019,553.935425 
	C38.549522,553.080688 36.570541,550.490234 36.541595,546.487244 
	C36.510895,542.242920 39.321728,538.551331 42.988522,538.278809 
	C47.554314,537.939453 49.580746,541.449768 51.993061,545.068787 
	C52.478107,546.015686 52.739086,546.483765 53.000072,546.951904 
	C53.017216,547.130310 53.034351,547.308655 53.078732,547.754456 
z"/>
<path fill="#1C1C17" opacity="1.000000" stroke="none" 
	d="
M50.000580,533.999878 
	C48.228630,533.618591 46.450115,533.261658 44.690792,532.827026 
	C44.459045,532.769714 44.325294,532.315735 44.151165,532.042114 
	C46.840134,530.419373 46.840134,530.419373 49.842934,533.707764 
	C49.999161,534.000427 50.000000,534.000000 50.000580,533.999878 
z"/>
<path fill="#1C1C17" opacity="1.000000" stroke="none" 
	d="
M52.886040,546.709717 
	C52.739086,546.483765 52.478107,546.015686 52.124100,545.296265 
	C52.278053,545.519165 52.525032,545.993347 52.886040,546.709717 
z"/>
<path fill="#121513" opacity="1.000000" stroke="none" 
	d="
M57.485039,438.497498 
	C57.487457,438.513977 57.482620,438.481049 57.485039,438.497498 
z"/>
<path fill="#1C1C17" opacity="1.000000" stroke="none" 
	d="
M37.986435,129.011780 
	C38.179134,128.559036 38.383957,128.096893 38.588776,127.634735 
	C38.733688,127.713036 38.878601,127.791336 39.023514,127.869644 
	C38.782631,128.186630 38.541744,128.503632 38.140091,128.925674 
	C37.979321,129.030731 37.998558,129.002380 37.986435,129.011780 
z"/>
<path fill="#000000" opacity="1.000000" stroke="none" 
	d="
M40.388081,86.472580 
	C40.291039,86.132111 40.256046,85.844635 40.273586,85.560410 
	C40.276840,85.507721 40.491917,85.468109 40.609230,85.422462 
	C40.562237,85.790535 40.515244,86.158615 40.388081,86.472580 
z"/>
<path fill="#000000" opacity="1.000000" stroke="none" 
	d="
M36.503059,187.997238 
	C36.515701,188.011108 36.490417,187.983368 36.503059,187.997238 
z"/>
<path fill="#161815" opacity="1.000000" stroke="none" 
	d="
M55.521202,323.041840 
	C55.470062,322.615479 55.550224,322.251160 55.630390,321.886841 
	C55.890141,322.010101 56.149883,322.133392 56.409622,322.256653 
	C56.157246,322.539093 55.904873,322.821472 55.521202,323.041840 
z"/>
<path fill="#000000" opacity="1.000000" stroke="none" 
	d="
M37.251930,293.378906 
	C37.259205,293.001862 37.309982,292.720459 37.360752,292.439026 
	C37.475613,292.485535 37.590473,292.532013 37.705338,292.578491 
	C37.568707,292.877167 37.432068,293.175812 37.251930,293.378906 
z"/>
<path fill="#161815" opacity="1.000000" stroke="none" 
	d="
M46.524254,435.529419 
	C46.984623,435.337555 47.428295,435.318787 47.871960,435.300049 
	C47.819206,435.724731 47.766453,436.149475 47.713699,436.574219 
	C47.311649,436.283630 46.909607,435.993042 46.524254,435.529419 
z"/>
<path fill="#161815" opacity="1.000000" stroke="none" 
	d="
M47.630974,414.219818 
	C48.119503,412.945007 48.813473,411.670380 49.701454,410.144897 
	C49.209114,411.336029 48.522762,412.778015 47.630974,414.219818 
z"/>
<path fill="#161815" opacity="1.000000" stroke="none" 
	d="
M56.791664,544.849487 
	C56.750179,544.872192 56.645512,544.583313 56.645512,544.583313 
	C56.645512,544.583313 56.833149,544.826843 56.791664,544.849487 
z"/>
<path fill="#161815" opacity="1.000000" stroke="none" 
	d="
M59.013515,551.034180 
	C58.996277,551.047363 59.030754,551.021057 59.013515,551.034180 
z"/>
<path fill="#161815" opacity="1.000000" stroke="none" 
	d="
M52.962368,553.988708 
	C52.965069,553.967468 52.959667,554.009949 52.962368,553.988708 
z"/>
<path fill="#161815" opacity="1.000000" stroke="none" 
	d="
M50.499844,466.520477 
	C50.512287,466.521606 50.487400,466.519348 50.499844,466.520477 
z"/>
</svg>