<svg version="1.1" id="Layer_1" xmlns="http://www.w3.org/2000/svg" xmlns:xlink="http://www.w3.org/1999/xlink" x="0px" y="0px"
	 width="100%" viewBox="0 0 368 1024" enable-background="new 0 0 368 1024" xml:space="preserve">
<path fill="#000000" opacity="1.000000" stroke="none" 
	d="
M271.625549,925.061401 
	C270.913849,932.711609 269.745453,939.866516 268.344666,947.094910 
	C264.310364,967.912964 250.504562,981.391907 235.461456,994.197327 
	C226.481262,1001.841736 216.018295,1006.520874 204.886932,1010.470154 
	C186.967819,1016.827515 169.079056,1017.092224 150.882767,1013.025146 
	C140.466248,1010.697021 131.354828,1005.628662 122.254822,999.998352 
	C114.729248,995.342224 107.694344,990.295715 102.744919,983.299133 
	C96.268661,974.144104 89.971489,964.863464 86.020859,953.962402 
	C83.089813,945.874878 81.372002,937.786072 80.008141,929.455383 
	C79.091690,923.857544 79.957108,918.315857 79.997818,912.759277 
	C80.024300,909.144958 80.558418,905.452515 80.722427,901.920105 
	C80.920784,897.648132 82.867752,893.024475 84.693130,888.865173 
	C89.292343,878.385498 94.677994,868.442200 101.595200,859.075073 
	C106.198982,852.840759 110.934708,846.726746 117.129990,842.856506 
	C122.605110,839.436157 128.090942,836.170593 132.878250,831.860291 
	C137.454681,827.739868 143.644547,824.135010 145.808502,818.925781 
	C148.690475,811.988159 155.032761,808.064087 158.165665,801.931274 
	C156.052490,799.132080 153.704865,800.887329 151.723923,800.705078 
	C143.778168,799.973938 135.791412,799.637451 127.812782,799.349854 
	C125.750938,799.275574 123.136971,800.838806 121.699203,800.023254 
	C118.839233,798.401123 114.806458,797.623657 116.682404,791.611389 
	C117.639122,788.545166 117.312210,783.954773 117.461075,780.049255 
	C117.604210,776.293945 118.972984,776.154480 122.019653,776.279297 
	C131.058716,776.649841 140.112411,776.672119 149.160980,776.782166 
	C149.766846,776.789612 150.377579,776.394287 150.951233,776.198181 
	C151.538345,774.035706 150.084930,772.877075 148.971970,771.800598 
	C140.993622,764.083191 136.211823,754.290894 133.040558,744.075012 
	C131.678299,739.686584 128.268936,734.363831 131.916382,729.156006 
	C129.190857,725.430359 135.157913,720.049683 129.528503,716.819214 
	C127.906265,715.888245 126.445374,714.782654 124.454720,715.545044 
	C119.999420,717.251404 115.476288,716.341370 110.914955,716.204834 
	C108.143524,716.121887 106.594200,715.723877 106.022949,712.894958 
	C105.421997,709.919006 105.560272,707.175781 108.174965,705.216064 
	C109.625748,704.128662 111.233559,703.176331 112.898384,702.460266 
	C130.279953,694.984009 143.848206,682.752869 154.869934,667.754456 
	C158.892166,662.281006 162.115448,655.830200 164.051727,649.333191 
	C165.702179,643.795105 168.610947,637.830505 167.883347,632.437134 
	C167.368164,628.618286 170.021881,624.536438 167.104187,620.996338 
	C166.356842,620.089539 167.047668,619.209656 167.674591,618.336304 
	C168.220734,617.575500 168.940811,616.273804 168.644440,615.679993 
	C166.407043,611.197266 168.104248,606.256287 166.597092,601.510376 
	C165.169418,597.014648 164.025208,592.348022 162.693741,587.749146 
	C158.846878,574.462219 149.433868,565.166870 140.450897,555.692932 
	C134.654449,549.579590 128.377579,543.693848 120.835648,539.540588 
	C119.851845,538.998779 118.865112,538.228638 116.734886,538.839050 
	C118.672318,551.698975 114.336609,562.681885 101.440117,566.598755 
	C93.786995,568.923096 84.164452,568.011230 78.796539,559.799561 
	C70.685486,547.391479 73.469315,536.206726 85.297150,526.627930 
	C79.511551,525.276062 75.815720,522.353821 72.060471,519.537415 
	C68.358276,516.760803 65.285103,513.117493 60.720692,511.516205 
	C59.852493,511.211639 58.794910,510.399323 58.528496,509.589691 
	C56.013496,501.946259 49.646866,496.910431 45.572685,490.313507 
	C42.395905,485.169647 41.978065,479.145477 39.233379,473.959473 
	C37.275257,470.259674 38.639065,465.456940 34.924664,462.044373 
	C32.156479,461.866272 29.650522,463.848145 26.764668,464.454987 
	C19.195435,466.046631 10.953648,458.257324 11.927320,450.497681 
	C13.346167,439.190155 23.473722,435.836823 31.777336,440.416138 
	C34.507343,441.921722 35.816753,441.129089 37.220627,438.537506 
	C40.569618,432.355225 42.057453,425.470001 44.653133,419.012146 
	C48.364094,409.779510 55.169865,403.422668 61.407410,396.394928 
	C63.333225,394.225128 66.143486,392.876923 66.536148,389.394043 
	C66.641098,388.463165 67.851692,385.820129 70.120720,387.398590 
	C71.613235,388.436859 72.253548,387.153625 73.156853,386.656067 
	C77.968323,384.005981 82.438988,381.145447 87.932915,379.332947 
	C94.368866,377.209595 100.985962,375.885406 107.412804,373.851257 
	C111.803024,372.461731 116.658951,374.137573 121.601471,371.930420 
	C121.071793,367.432007 117.466225,364.230408 116.058105,360.157898 
	C114.247292,354.920685 112.347855,349.580536 113.016983,343.863342 
	C113.442596,340.226746 111.595177,336.989838 112.362366,332.949860 
	C113.149887,328.802795 113.271828,323.877563 114.717499,320.224731 
	C116.708946,315.192810 117.836983,309.758667 120.808029,304.965942 
	C125.251259,297.798431 129.077087,290.186249 132.992920,282.756104 
	C136.265137,276.547180 141.454697,270.995789 142.917877,264.305695 
	C144.430527,257.389343 149.445648,252.434494 150.909012,245.312088 
	C151.895950,240.508591 154.538635,234.945160 156.472015,229.864029 
	C159.876068,220.917755 164.267365,212.121613 165.208588,202.331223 
	C165.284592,201.540741 165.599564,200.688156 166.048264,200.031754 
	C170.526047,193.481232 170.112289,185.486053 172.540512,178.379486 
	C175.631226,169.333984 174.875656,159.612137 178.644440,150.612656 
	C180.768524,145.540558 179.875305,139.280457 180.940674,133.669327 
	C182.140320,127.350922 182.020462,120.847900 184.461182,114.640007 
	C185.469452,112.075523 184.709702,108.514183 184.830215,105.457062 
	C185.123535,98.016319 185.725067,90.624092 186.451035,83.227188 
	C186.802948,79.641510 185.772308,76.094490 186.501083,72.453484 
	C187.519669,67.364532 185.470840,62.228550 186.752289,56.891460 
	C187.174850,55.131500 186.526062,51.561886 185.389893,48.755493 
	C184.356323,46.202576 184.066315,42.087543 184.980087,39.371349 
	C186.670197,34.347416 183.504181,30.080898 184.105225,25.344400 
	C184.282898,23.944323 183.753265,22.441021 184.940353,21.308041 
	C188.672684,17.745857 192.426788,14.204969 196.236206,10.725629 
	C198.496918,8.660794 200.638458,8.856725 202.674957,11.237369 
	C204.948410,13.895041 207.374649,16.421389 209.700119,19.035379 
	C212.049103,21.675808 213.215683,24.524384 211.943054,28.179853 
	C210.831131,31.373611 212.078705,34.712963 211.568604,38.154526 
	C209.941269,49.133549 209.195618,60.256348 208.428299,71.345688 
	C207.793320,80.522675 207.363297,89.718040 207.769913,98.938843 
	C208.160965,107.806557 208.136520,116.693062 208.558609,125.558739 
	C208.756592,129.717300 209.841110,133.834351 210.028656,137.992538 
	C210.179703,141.341080 211.073090,144.727463 210.989380,147.870605 
	C210.751648,156.796936 213.238037,165.443405 215.112747,173.705536 
	C217.362579,183.620865 218.943954,193.847275 222.207779,203.725006 
	C225.162170,212.666275 228.980804,221.738373 229.613144,231.456665 
	C229.675980,232.422134 230.016953,233.465988 230.525162,234.290863 
	C234.914139,241.414413 236.229309,249.771454 239.911362,257.235748 
	C243.342499,264.191345 243.689957,272.481171 247.907990,279.199738 
	C253.527771,288.151154 258.133118,297.801086 262.373749,307.254456 
	C266.176361,315.731323 270.012207,324.870483 269.965210,335.286072 
	C269.925507,344.083160 268.942535,352.390442 266.006653,360.331238 
	C264.348206,364.816803 263.191162,369.871613 259.532867,373.550934 
	C258.532379,374.557190 258.447540,375.965668 259.373260,377.227966 
	C260.344818,378.552795 261.712646,378.744476 262.869415,377.808228 
	C265.562744,375.628296 268.097198,377.734619 270.459564,378.212708 
	C276.648834,379.465271 282.803497,380.706909 288.932281,382.703735 
	C298.228638,385.732605 305.014893,392.315460 313.391876,396.468689 
	C317.820282,398.664276 321.389740,403.054871 323.448242,407.907196 
	C324.496552,410.378235 325.509338,412.846222 327.070618,414.982544 
	C333.044952,423.157379 335.064026,432.804810 337.381805,442.325714 
	C338.447662,446.703918 339.492889,449.251801 345.282318,447.418732 
	C353.739136,444.741119 360.272308,448.353668 363.560974,455.939484 
	C366.492828,462.702393 360.873108,470.101257 353.991943,471.899261 
	C347.786194,473.520874 343.895386,471.812256 340.051941,467.721283 
	C337.558899,469.142975 337.414734,471.191345 336.975830,473.333923 
	C332.102264,497.124512 318.058044,514.309143 297.767151,526.742249 
	C295.544861,528.104004 292.396210,528.092041 289.925201,529.471741 
	C287.067444,531.067505 286.572327,532.996277 289.077881,535.365601 
	C290.046326,536.281372 290.961182,537.257263 291.964905,538.131836 
	C302.775696,547.551453 295.934784,564.449707 286.554657,569.613831 
	C276.617584,575.084534 263.618622,572.230591 257.897583,563.356262 
	C255.112900,559.036743 254.233124,553.866760 255.187683,548.671509 
	C255.600937,546.422363 255.934494,544.367676 253.985641,542.708069 
	C251.775238,540.825745 250.277313,543.076233 248.653946,543.831665 
	C241.723358,547.056702 236.179474,552.472351 229.348358,556.021179 
	C225.680969,557.926392 222.138077,561.334656 220.998932,566.168335 
	C220.645996,567.665955 219.312439,569.016602 218.211838,570.240234 
	C210.911560,578.356567 205.530014,587.849243 201.683655,597.794373 
	C199.119598,604.424011 198.354401,611.922363 198.023956,619.487915 
	C197.662766,627.757202 200.672501,635.474731 199.803528,643.567383 
	C199.742294,644.137756 200.322998,644.766174 200.568924,645.382080 
	C203.693375,653.206726 205.574356,661.877747 210.208405,668.671204 
	C217.966843,680.044983 225.070496,692.372253 238.637650,698.681763 
	C244.114777,701.228821 248.808640,705.534363 253.683578,709.268616 
	C255.872040,710.945007 257.580414,713.606873 256.020386,716.262573 
	C254.531586,718.796875 251.666077,720.338257 248.562180,720.230896 
	C244.256805,720.082031 239.909042,719.830383 235.685425,719.049500 
	C232.043198,718.376160 230.804001,718.530701 230.929657,723.012817 
	C231.473404,742.409851 225.901840,759.461243 210.328979,772.238831 
	C208.568192,773.683472 206.487122,774.973694 205.957352,777.546692 
	C207.018646,779.457275 208.812119,779.632874 210.687271,779.512817 
	C217.056961,779.104980 223.395203,778.970154 229.796082,779.495850 
	C232.696259,779.734131 235.573669,777.421204 238.672363,779.951599 
	C242.322159,782.931885 243.571701,789.593689 241.592606,796.352417 
	C240.120651,801.379211 236.721405,803.242493 231.938873,803.042358 
	C226.125336,802.798950 220.298141,802.485535 214.527496,801.785217 
	C211.739594,801.446838 208.931091,801.726196 206.119568,800.973755 
	C203.873886,800.372620 201.336258,801.250732 199.931686,803.331970 
	C198.471497,805.495483 200.469711,807.059387 201.585052,808.604858 
	C211.585129,822.461182 223.206818,834.779541 236.517715,845.519165 
	C240.600220,848.812988 246.271988,849.855591 249.243652,854.692322 
	C254.616669,863.437256 261.388458,871.635315 265.006165,881.049316 
	C268.001129,888.842773 270.740173,897.467896 269.794830,906.392029 
	C269.716492,907.131714 270.293549,907.947266 270.588440,908.718994 
	C272.580994,913.932617 272.189362,919.319458 271.625549,925.061401 
M220.171616,412.776825 
	C217.247757,416.342621 213.483521,418.825195 211.999954,424.048462 
	C210.865402,428.042938 206.103622,431.215454 204.744446,435.698517 
	C203.378845,440.202728 203.114639,445.137238 201.809967,449.560303 
	C199.837967,456.245728 200.956360,463.028137 202.363983,468.795166 
	C204.109116,475.945007 205.569214,484.093781 211.503418,489.798340 
	C213.324432,491.548889 211.682648,494.759827 214.518829,496.270142 
	C223.835938,501.231628 230.439072,510.687073 241.715317,512.542969 
	C243.477081,512.832947 245.011017,514.212708 246.656982,512.511719 
	C248.227432,510.888794 246.784897,509.501831 246.323135,507.964264 
	C244.830841,502.995087 242.449509,497.936279 244.148361,492.720947 
	C248.210739,480.249603 267.142365,467.667267 279.999359,482.337952 
	C284.326172,487.275116 288.917694,492.505066 286.369232,500.211426 
	C285.801422,501.928406 285.406067,504.163513 287.711914,506.353485 
	C291.640839,502.787079 297.414825,502.053986 301.170746,498.016907 
	C306.385620,492.411591 309.287262,485.209900 313.617126,478.970306 
	C314.462555,477.751923 314.961578,476.107971 315.370483,474.467651 
	C316.309662,470.700134 317.328033,467.213135 317.067383,463.098816 
	C316.684448,457.054749 318.665436,450.851379 315.457428,445.028839 
	C315.077850,444.339905 314.549713,443.456299 314.696075,442.797485 
	C315.909607,437.335175 312.885712,432.430389 310.507568,428.739380 
	C304.820740,419.913239 298.836884,411.373383 288.019196,406.645325 
	C280.551849,403.381561 273.212769,401.346313 265.433136,399.587494 
	C248.026550,395.652252 234.406967,403.979858 220.171616,412.776825 
M126.206970,509.360992 
	C131.100510,510.984711 135.303101,508.022217 139.198990,506.383392 
	C148.681396,502.394562 156.061066,495.200867 162.704041,487.406372 
	C164.961105,484.758057 167.466156,482.065491 168.234222,478.594238 
	C169.384689,473.394714 171.005936,468.292480 172.416214,463.206848 
	C176.059662,450.068054 173.702759,437.606079 167.497452,426.580841 
	C158.354523,410.336334 144.419128,399.271515 125.158104,396.608582 
	C123.013969,396.312134 121.320534,394.725342 118.975243,395.077301 
	C114.080765,395.811859 108.879219,397.101410 104.358055,397.102905 
	C96.182579,397.105621 89.804352,401.265930 84.034401,404.723114 
	C71.330269,412.335022 62.420261,423.465393 60.369617,439.437561 
	C58.769726,451.898865 56.960720,463.945648 63.349831,475.564453 
	C63.583576,475.989532 63.724014,476.493561 63.793427,476.977234 
	C65.064781,485.835632 77.206680,498.626709 86.142609,500.501129 
	C84.031425,493.857483 85.373718,487.573730 91.626160,479.671509 
	C100.435493,468.537720 116.751900,470.371948 124.127266,479.146820 
	C128.610168,484.480316 128.720016,490.507751 128.801971,496.988586 
	C128.857910,501.414185 126.704399,504.872192 126.206970,509.360992 
M209.631531,335.894928 
	C202.054520,337.383087 195.390274,335.810211 189.981735,329.587830 
	C187.425293,332.173248 184.334854,333.453003 181.585876,335.267883 
	C175.963409,338.979736 161.157471,335.270630 158.775009,328.202881 
	C157.158508,323.407379 154.723801,318.542938 155.672195,312.949097 
	C156.356201,308.914703 154.050522,307.527313 150.314774,309.261475 
	C135.772034,316.012512 130.982986,330.671967 134.106354,344.238831 
	C137.606705,359.443146 146.524277,371.926178 158.075211,382.474030 
	C166.685593,390.336700 175.006104,398.501068 182.571762,407.402130 
	C183.789261,408.834564 184.543549,410.385315 185.046432,412.208588 
	C186.305130,416.772156 187.643433,417.127350 190.916290,413.545532 
	C195.858215,408.137238 200.450592,402.388611 206.083145,397.660034 
	C214.764648,390.371704 222.998291,382.613953 231.118027,374.709778 
	C239.157150,366.883942 243.456085,357.373932 246.622772,346.711945 
	C247.960510,342.207794 246.125137,338.358673 246.873306,334.058960 
	C247.471191,330.623016 247.664490,325.424347 244.280884,321.220734 
	C239.581635,315.382599 233.736923,312.645996 226.394455,310.669434 
	C226.194687,314.844421 224.982941,318.532867 224.694077,322.241852 
	C224.147232,329.263763 217.409760,336.139404 209.631531,335.894928 
M194.890457,299.597931 
	C199.911835,298.760895 203.974472,295.740265 208.442490,293.643494 
	C209.338776,293.222931 210.253403,292.324707 211.097946,292.394318 
	C216.662064,292.852844 222.357956,292.149445 227.755310,294.228394 
	C229.162949,294.770599 230.825317,295.098541 231.945923,293.754608 
	C233.181824,292.272369 231.791260,290.926331 231.224197,289.637085 
	C229.556458,285.845459 226.432495,282.746063 225.515137,278.633118 
	C224.058014,272.100250 222.090286,265.665253 219.355179,259.660858 
	C216.316483,252.989975 214.441437,245.915619 211.771088,239.145340 
	C210.484726,235.883957 208.120224,232.170242 208.494476,228.642395 
	C208.859589,225.200897 207.207565,223.894852 205.349228,222.097092 
	C202.437073,222.980331 200.263748,224.773300 198.054947,226.502396 
	C194.782318,229.064270 191.865814,229.376801 188.307495,226.427597 
	C181.605957,220.873230 181.174347,221.142120 177.592880,229.055756 
	C177.318573,229.661865 177.021896,230.266647 176.832169,230.900925 
	C173.340683,242.573212 167.578796,253.340225 163.138748,264.638275 
	C160.786682,270.623352 158.764008,276.881317 155.403992,282.604034 
	C153.953583,285.074371 152.846695,288.760864 152.817841,292.082214 
	C154.762817,293.131195 156.359680,292.250305 157.972076,292.213989 
	C168.325989,291.980743 178.885803,291.264008 186.817719,299.935425 
	C189.481781,302.847839 191.821915,302.709137 194.890457,299.597931 
M197.665070,693.677612 
	C193.032822,681.597778 188.194580,669.611572 182.261978,657.019775 
	C179.490585,662.333435 176.849442,666.112305 175.451736,670.305542 
	C170.144608,686.227661 160.009842,699.921265 154.978836,716.039612 
	C152.900772,722.697266 150.834427,729.138367 155.019592,734.696838 
	C158.718506,739.609436 158.469543,746.775024 166.871857,749.599915 
	C173.817123,751.934937 179.503311,753.564453 186.772141,751.954590 
	C203.401840,748.271301 213.037338,733.291748 207.342651,717.352722 
	C204.573944,709.603271 202.063232,701.636230 197.665070,693.677612 
M166.218781,549.305542 
	C174.561539,557.450256 177.240219,569.235962 185.355484,579.937195 
	C192.255615,560.087280 207.068481,548.049744 220.338974,534.948181 
	C218.676376,531.615173 215.798523,530.687988 213.291092,529.745178 
	C210.555450,528.716614 208.214111,527.278320 206.110336,525.412537 
	C200.134003,520.112427 194.283249,514.652588 189.638031,508.109192 
	C187.402100,504.959595 185.457672,504.694885 183.067062,507.739563 
	C182.349777,508.653137 181.544769,509.502686 180.735168,510.338165 
	C172.758820,518.569641 165.008408,527.097229 153.424728,530.467346 
	C152.600052,530.707275 151.652481,531.463623 151.786316,533.230042 
	C155.459656,538.891846 161.810883,542.777893 166.218781,549.305542 
M180.635895,942.731262 
	C188.692581,942.516052 201.447235,932.010376 202.359024,924.021057 
	C203.295105,915.819031 202.821732,907.084473 196.356262,901.316406 
	C191.732239,897.191162 185.919983,893.575317 179.283463,892.684692 
	C173.975311,891.972290 168.758591,892.621277 163.828079,894.887024 
	C154.234009,899.295837 148.661346,916.138000 153.065460,925.869812 
	C157.942398,936.646362 167.234741,945.047852 180.635895,942.731262 
z"/>
</svg>