<svg version="1.1" id="Layer_1" xmlns="http://www.w3.org/2000/svg" xmlns:xlink="http://www.w3.org/1999/xlink" x="0px" y="0px"
	 width="100%" viewBox="0 0 176 592" enable-background="new 0 0 176 592" xml:space="preserve">
<path fill="#000000" opacity="1.000000" stroke="none" 
	d="
M62.238159,460.355469 
	C65.723808,455.193695 69.586914,451.089172 74.723320,447.947388 
	C80.365013,444.496582 84.066368,439.645081 87.562721,433.415283 
	C83.185760,433.108459 78.910339,432.560913 74.639427,432.594025 
	C71.650238,432.617157 70.747345,431.262268 70.827316,428.717712 
	C70.907578,426.163910 70.299248,423.004883 74.224808,422.765594 
	C77.534447,422.563873 80.866150,422.724060 84.998047,422.724060 
	C81.241798,417.369293 77.848694,412.526794 77.140617,406.491547 
	C77.103493,406.175110 76.729332,405.848053 76.781929,405.578644 
	C77.993622,399.371582 75.963821,396.559662 69.319672,398.143616 
	C67.997833,398.458740 66.679779,397.800415 66.473801,396.065338 
	C66.266541,394.319458 67.133041,393.062714 68.567108,392.428223 
	C72.086861,390.870972 75.317314,388.892914 78.363647,386.553741 
	C98.445763,371.133545 97.001106,339.256165 73.049706,325.246918 
	C72.798332,325.099915 72.421761,325.166992 71.717628,325.094177 
	C71.464119,330.357758 69.837746,335.063721 63.932682,336.068085 
	C60.655693,336.625427 57.073383,336.116394 55.120026,332.811005 
	C52.483818,328.350128 52.940807,323.938293 56.912643,319.576782 
	C46.396053,313.400787 39.757015,304.672913 37.460201,292.890564 
	C34.126514,293.143677 30.870543,295.092712 28.631346,291.334564 
	C27.391981,289.254456 27.088688,287.079315 28.177469,285.171509 
	C30.269564,281.505676 33.921200,282.836670 37.655605,283.271484 
	C42.401218,265.909576 53.745762,256.251923 72.074219,255.164154 
	C71.263405,250.859863 69.400696,247.501251 69.049179,243.691605 
	C68.306107,235.638428 71.282944,228.619919 75.153915,222.060165 
	C87.860649,200.527283 94.546036,177.171829 97.895981,152.547882 
	C99.698273,139.300003 99.984604,126.156021 98.886848,112.903191 
	C98.623283,109.721268 102.734962,104.446114 105.320435,104.507217 
	C107.612762,104.561394 111.211365,109.746536 110.781296,112.949654 
	C109.115974,125.352753 108.992409,137.803757 109.468559,150.266815 
	C109.990799,163.936401 112.602509,177.258774 116.534889,190.345505 
	C120.460762,203.410583 125.315842,216.060852 131.680618,228.181152 
	C136.571747,237.495209 136.105331,247.057495 130.270950,256.646515 
	C148.677200,258.279633 160.003464,267.639648 163.396759,285.461548 
	C171.546722,286.169678 174.346420,287.992645 173.796509,292.007355 
	C173.176483,296.533813 170.074829,297.831512 163.460953,296.138397 
	C161.601166,301.402832 159.848083,306.804810 156.182938,311.214966 
	C152.621918,315.499847 148.205139,318.702606 142.503555,321.230072 
	C144.974930,325.041870 147.886520,328.795959 145.265961,333.485199 
	C144.173126,335.440735 142.731781,336.905396 140.487701,337.582397 
	C133.199554,339.781219 131.219254,338.232239 126.991409,326.540771 
	C119.068108,329.504150 113.961670,335.528748 109.832878,342.367828 
	C100.452560,357.905762 105.784676,379.968353 121.063019,389.952393 
	C123.150490,391.316559 125.182930,392.769287 127.191498,394.248016 
	C128.276764,395.047028 129.366959,396.029327 128.880264,397.559113 
	C128.343872,399.245117 126.820900,399.649750 125.262108,399.648621 
	C123.289154,399.647217 121.312202,398.991974 118.851898,399.842682 
	C118.895134,408.648682 116.441635,416.702301 108.360138,422.880798 
	C111.977371,424.206482 114.946602,423.734283 117.777855,423.686096 
	C121.832764,423.617188 123.465218,425.199707 123.350624,429.335602 
	C123.231964,433.618469 120.645164,434.212891 117.366829,434.164429 
	C113.756172,434.111084 110.184998,432.618774 105.492775,434.087524 
	C108.750893,439.622040 112.567200,444.198059 117.152679,448.179474 
	C121.498764,451.953003 125.935104,455.354248 129.494919,460.232971 
	C137.514984,471.224335 138.244858,496.923920 125.514427,509.322510 
	C113.798698,520.732788 95.176231,525.367432 81.375847,520.224792 
	C57.631031,511.376373 47.995522,481.318176 62.238159,460.355469 
M136.486084,267.466034 
	C122.336411,262.551025 109.489906,273.906433 107.340843,283.728363 
	C104.157631,298.276703 111.397179,310.494385 123.986259,312.596497 
	C123.585503,303.123688 126.256783,298.412994 132.299713,297.871063 
	C134.404373,297.682312 136.164352,298.341400 137.851196,299.585602 
	C141.169891,302.033386 142.066299,305.593384 142.347244,309.482300 
	C151.854904,304.979767 154.538193,296.846344 154.259262,288.193024 
	C153.972824,279.306702 146.460968,270.738708 136.486084,267.466034 
M51.532681,302.849945 
	C53.124378,304.497437 54.571285,306.356384 57.057968,306.742279 
	C59.913872,298.190247 62.657169,295.718445 68.801064,296.675598 
	C77.687111,298.059937 76.311211,305.094696 76.110306,311.238892 
	C89.810333,309.951019 100.517708,289.950134 90.813042,276.076019 
	C82.744194,264.540558 68.016739,261.639801 56.669720,269.344421 
	C46.731876,276.092224 44.198002,291.069885 51.532681,302.849945 
M122.780701,232.897690 
	C121.208199,231.313492 119.357254,230.381210 116.897476,230.336136 
	C116.710655,231.019104 116.465485,231.621323 116.387787,232.244415 
	C115.502106,239.346725 110.537239,242.516174 104.178345,239.507935 
	C101.877861,238.419617 100.435036,238.634018 98.344574,239.610687 
	C93.641739,241.807800 89.479828,239.735184 87.642563,234.942474 
	C86.958969,233.159256 87.486641,230.881470 85.496712,229.421295 
	C84.908791,229.623611 84.227951,229.719086 83.705978,230.058701 
	C77.604774,234.028290 76.764511,242.693298 81.115509,250.089523 
	C86.179680,258.698059 95.183731,263.694305 100.588753,272.663116 
	C107.336540,265.542419 115.455276,260.313110 121.021416,252.631226 
	C125.147377,246.936935 126.630554,240.306000 122.780701,232.897690 
M115.878242,215.650085 
	C113.290062,208.250900 110.701874,200.851715 107.889091,192.810471 
	C104.328957,196.270004 101.110626,195.395935 97.674500,193.411240 
	C93.803734,202.764160 90.101791,211.709152 86.086685,221.410828 
	C91.876228,221.663025 96.930130,221.622849 100.934013,225.140427 
	C101.597336,225.723206 102.536713,225.526993 103.292015,225.093033 
	C107.941628,222.421555 112.817993,220.806885 119.026077,222.823761 
	C117.678574,219.898743 116.858719,218.119064 115.878242,215.650085 
M102.894600,384.469086 
	C101.538216,381.314453 100.718468,377.892944 97.974564,374.560242 
	C94.055946,382.488770 90.068207,389.871826 87.305992,397.807800 
	C85.529915,402.910553 87.191788,408.271332 90.771576,410.720917 
	C95.498856,413.955719 100.615173,413.772827 105.028709,410.211273 
	C108.990013,407.014648 110.053642,402.056122 107.903282,396.698547 
	C106.357422,392.847015 104.784851,389.006226 102.894600,384.469086 
M87.341194,323.502991 
	C92.204453,328.001678 95.727371,333.537476 99.291870,340.893127 
	C102.630829,332.422729 108.820831,328.170624 113.657211,322.145020 
	C107.456863,319.756714 104.257301,314.666687 99.855690,310.925262 
	C96.578407,313.906708 93.851059,317.036621 90.274315,319.270172 
	C88.979927,320.078522 86.610863,320.476318 87.341194,323.502991 
M85.962128,482.859314 
	C86.311806,484.494934 86.798859,486.043915 87.831642,487.432343 
	C91.216621,491.983032 97.054611,493.249695 101.562508,490.333679 
	C106.491692,487.145111 108.013680,481.328094 105.214989,476.373993 
	C103.409752,473.178436 96.903137,470.418518 92.889252,471.502411 
	C87.549675,472.944366 86.109535,477.260803 85.962128,482.859314 
z"/>
</svg>