<svg version="1.1" id="Layer_1" xmlns="http://www.w3.org/2000/svg" xmlns:xlink="http://www.w3.org/1999/xlink" x="0px" y="0px"
	 width="100%" viewBox="0 0 166 441" enable-background="new 0 0 166 441" xml:space="preserve">
<path fill="#000000" opacity="1.000000" stroke="none" 
	d="
M167.000000,181.000000 
	C167.000000,268.333344 167.000000,355.166656 167.000000,442.000000 
	C111.666664,442.000000 56.333332,442.000000 1.000000,442.000000 
	C1.000000,295.000000 1.000000,148.000000 1.000000,1.000000 
	C56.333332,1.000000 111.666664,1.000000 167.000000,1.000000 
	C167.000000,60.833332 167.000000,120.666664 167.000000,181.000000 
M60.964172,298.960602 
	C60.964172,298.960602 60.942120,298.950287 60.216965,299.066315 
	C57.759720,300.190613 55.302479,301.314911 52.845234,302.439209 
	C53.061440,303.128204 53.277641,303.817169 53.493847,304.506165 
	C56.300266,304.065887 59.106682,303.625641 62.099525,303.804047 
	C62.466824,307.535583 62.119686,311.527679 63.363884,314.939453 
	C65.380264,320.468567 68.440796,325.616943 70.310066,331.218048 
	C68.505333,331.477325 66.641930,331.535522 64.908989,332.040955 
	C61.981583,332.894745 56.509968,330.549011 57.066513,336.154083 
	C57.597198,341.498749 62.406681,339.403564 65.913467,339.423004 
	C67.837479,339.433685 70.656563,339.993011 71.415947,341.281219 
	C72.136154,342.502960 70.970421,345.130829 70.119949,346.892090 
	C69.425087,348.331055 68.101692,349.560120 66.832588,350.611389 
	C62.233372,354.421295 56.510929,357.360626 53.091614,362.010437 
	C45.523430,372.302094 38.328812,382.409760 41.446480,397.301697 
	C45.930511,418.720245 64.487373,432.118774 85.053024,428.705322 
	C97.219337,426.685974 107.269936,420.680969 113.601929,409.937683 
	C115.637093,406.484680 115.015770,401.573456 116.496895,397.665588 
	C120.391998,387.388733 117.063812,378.256104 111.956581,369.804718 
	C109.203476,365.248962 104.383011,361.979218 100.717171,357.928436 
	C96.741974,353.535828 92.825562,349.054596 89.349045,344.273499 
	C88.576981,343.211731 89.752388,340.733856 90.701103,339.232086 
	C94.218056,339.900024 97.745720,341.073456 101.246933,340.999298 
	C102.750908,340.967438 104.199989,338.345215 105.674011,336.899902 
	C104.233620,335.639984 102.974991,333.725159 101.312958,333.263855 
	C98.346603,332.440582 95.136688,332.494873 91.929131,331.605957 
	C92.271301,330.528107 92.301514,329.148315 93.005653,328.420807 
	C98.044975,323.214111 101.327934,317.398285 101.349838,309.843719 
	C101.359550,306.496338 104.091904,305.135498 107.318130,305.172546 
	C108.532265,305.186493 109.744606,305.356384 110.957764,305.455170 
	C111.138199,305.020081 111.318626,304.584961 111.499062,304.149841 
	C107.001320,301.765991 102.503571,299.382141 97.825912,296.312103 
	C96.512566,294.026154 95.212830,291.732239 93.882614,289.456146 
	C91.978378,286.197845 88.790176,283.098480 88.393791,279.671753 
	C87.530991,272.212738 88.086388,264.589661 88.454010,256.471527 
	C92.630623,247.934830 97.327400,239.828079 106.727600,234.774979 
	C112.544075,232.566895 114.020126,233.314819 114.453117,239.288239 
	C114.711937,242.858948 116.622017,244.660858 119.788628,244.547653 
	C122.094208,244.465240 125.826271,243.725113 126.329765,242.337479 
	C127.341370,239.549500 127.650780,235.528671 126.305260,233.089294 
	C124.208832,229.288574 125.211899,227.995560 128.419754,226.134933 
	C135.213867,222.194214 141.662994,217.890930 143.768555,209.404724 
	C144.583450,206.120361 146.546585,203.120895 148.542068,200.366333 
	C151.031876,201.374695 153.521683,202.383041 156.627777,203.640991 
	C155.994843,196.287064 153.740997,194.455887 148.526230,195.499832 
	C146.637848,192.997498 144.749466,190.495163 142.865875,187.218140 
	C141.192123,177.012070 131.082611,167.952789 119.215500,166.823929 
	C114.725647,166.396835 113.738335,164.559433 114.594826,160.765289 
	C115.212738,158.028015 116.224335,155.363663 116.657776,152.603561 
	C118.244110,142.501801 112.933739,134.557190 108.206688,126.455231 
	C107.558716,125.344627 106.651138,124.326797 106.257393,123.135864 
	C103.154213,113.750015 100.146736,104.332512 96.991661,94.203995 
	C95.341103,83.810539 93.722733,73.411819 92.021408,63.026684 
	C91.473145,59.680038 90.706535,56.369164 90.011436,53.023449 
	C90.011436,53.023449 90.025871,53.036331 90.512894,53.009777 
	C90.512894,53.009777 91.000031,52.985516 91.286850,52.345112 
	C91.821815,42.168877 92.611794,31.994509 92.686226,21.814907 
	C92.701958,19.663229 90.195274,15.759109 88.683929,15.675401 
	C85.045700,15.473889 84.385666,18.853977 84.485558,22.157703 
	C84.735886,30.436495 84.844307,38.719578 85.141235,47.621754 
	C85.427711,48.414310 85.714188,49.206867 85.774345,50.590996 
	C85.483040,51.384068 85.191734,52.177139 84.633858,53.639194 
	C82.650620,64.798798 80.667374,75.958397 78.825218,87.768692 
	C78.541588,89.834641 78.257965,91.900589 77.532455,94.227989 
	C77.175735,94.572113 76.642273,94.851074 76.487885,95.269798 
	C71.220512,109.556328 65.736450,123.661613 57.743992,136.813263 
	C54.475445,142.191681 52.912640,148.943909 56.128296,155.932556 
	C58.684536,161.488083 56.620972,163.919327 50.536453,165.216187 
	C37.878273,167.914185 29.144054,175.125641 24.513510,187.435974 
	C23.665091,189.691483 20.873932,191.216217 18.318216,192.766937 
	C16.452303,193.180573 14.586390,193.594223 12.720474,194.007874 
	C13.804425,196.021988 14.888377,198.036118 16.601360,200.167267 
	C22.259537,199.024567 23.991913,203.842438 26.611696,207.327866 
	C26.662788,208.294754 26.575060,209.293304 26.787153,210.223495 
	C28.345932,217.059937 33.910526,220.706573 39.146080,223.935913 
	C43.748779,226.774918 43.593300,228.342697 40.222305,231.919083 
	C38.968410,233.249359 39.026806,236.541550 39.560505,238.669846 
	C40.467823,242.288040 43.761692,241.993103 46.531433,241.293610 
	C48.777485,240.726379 50.905956,239.581039 52.957375,238.456436 
	C53.339451,238.246979 53.096909,236.918304 53.163048,236.107834 
	C53.271568,234.777969 53.196213,232.370438 53.549286,232.304794 
	C55.190750,231.999634 57.261791,231.790222 58.618946,232.548767 
	C64.979950,236.104019 70.166489,241.174255 73.440445,247.607742 
	C81.778496,263.992340 79.880806,284.171265 62.499203,296.304016 
	C61.985802,297.189026 61.472401,298.074066 60.964172,298.960602 
z"/>
<path fill="#0C0F0E" opacity="1.000000" stroke="none" 
	d="
M98.005821,296.998291 
	C102.503571,299.382141 107.001320,301.765991 111.499062,304.149841 
	C111.318626,304.584961 111.138199,305.020081 110.957764,305.455170 
	C109.744606,305.356384 108.532265,305.186493 107.318130,305.172546 
	C104.091904,305.135498 101.359550,306.496338 101.349838,309.843719 
	C101.327934,317.398285 98.044975,323.214111 93.005653,328.420807 
	C92.301514,329.148315 92.271301,330.528107 92.034576,332.195770 
	C91.437057,334.826385 90.734085,336.867218 90.031120,338.908020 
	C89.752388,340.733856 88.576981,343.211731 89.349045,344.273499 
	C92.825562,349.054596 96.741974,353.535828 100.717171,357.928436 
	C104.383011,361.979218 109.203476,365.248962 111.956581,369.804718 
	C117.063812,378.256104 120.391998,387.388733 116.496895,397.665588 
	C115.015770,401.573456 115.637093,406.484680 113.601929,409.937683 
	C107.269936,420.680969 97.219337,426.685974 85.053024,428.705322 
	C64.487373,432.118774 45.930511,418.720245 41.446480,397.301697 
	C38.328812,382.409760 45.523430,372.302094 53.091614,362.010437 
	C56.510929,357.360626 62.233372,354.421295 66.832588,350.611389 
	C68.101692,349.560120 69.425087,348.331055 70.119949,346.892090 
	C70.970421,345.130829 72.136154,342.502960 71.415947,341.281219 
	C70.656563,339.993011 67.837479,339.433685 65.913467,339.423004 
	C62.406681,339.403564 57.597198,341.498749 57.066513,336.154083 
	C56.509968,330.549011 61.981583,332.894745 64.908989,332.040955 
	C66.641930,331.535522 68.505333,331.477325 70.736191,330.770752 
	C70.788742,327.963470 70.399803,325.605804 70.045860,323.242920 
	C69.682991,320.820496 69.354370,318.392883 69.281258,316.168030 
	C72.977699,318.324402 76.193016,320.973785 79.873489,322.091644 
	C87.503891,324.409210 96.426735,315.628174 94.555573,307.945801 
	C93.656761,304.255585 92.184517,300.705017 91.307022,296.960144 
	C93.763329,296.885498 95.884575,296.941895 98.005821,296.998291 
M92.246834,389.899506 
	C92.327675,384.632751 89.029190,379.891205 83.909447,379.083527 
	C77.426109,378.060760 71.784035,378.018433 69.345909,384.166718 
	C67.694183,388.331940 67.602142,392.153687 70.427368,395.937073 
	C74.503418,401.395447 80.590340,401.823853 85.760994,400.049744 
	C88.662582,399.054169 90.113091,393.829315 92.246834,389.899506 
z"/>
<path fill="#0C0E0D" opacity="1.000000" stroke="none" 
	d="
M97.915863,296.655212 
	C95.884575,296.941895 93.763329,296.885498 91.124100,296.738464 
	C89.498138,293.201965 88.052834,289.819611 87.388802,286.290253 
	C86.856789,283.462524 85.663361,280.879883 82.999329,281.479279 
	C80.962616,281.937561 79.055122,284.498077 77.808640,286.558258 
	C76.207825,289.203979 75.504036,292.374573 74.099380,295.160492 
	C70.789963,301.724091 65.363777,307.717896 69.010757,315.967560 
	C69.354370,318.392883 69.682991,320.820496 70.045860,323.242920 
	C70.399803,325.605804 70.788742,327.963470 71.111404,330.624756 
	C68.440796,325.616943 65.380264,320.468567 63.363884,314.939453 
	C62.119686,311.527679 62.466824,307.535583 61.972420,303.229034 
	C61.544250,301.419434 61.243187,300.184875 60.942123,298.950287 
	C60.942120,298.950287 60.964172,298.960602 61.199844,298.872620 
	C61.923817,297.799255 62.412121,296.813843 62.900421,295.828430 
	C79.880806,284.171265 81.778496,263.992340 73.440445,247.607742 
	C70.166489,241.174255 64.979950,236.104019 58.618946,232.548767 
	C57.261791,231.790222 55.190750,231.999634 53.549286,232.304794 
	C53.196213,232.370438 53.271568,234.777969 53.163048,236.107834 
	C53.096909,236.918304 53.339451,238.246979 52.957375,238.456436 
	C50.905956,239.581039 48.777485,240.726379 46.531433,241.293610 
	C43.761692,241.993103 40.467823,242.288040 39.560505,238.669846 
	C39.026806,236.541550 38.968410,233.249359 40.222305,231.919083 
	C43.593300,228.342697 43.748779,226.774918 39.146080,223.935913 
	C33.910526,220.706573 28.345932,217.059937 26.787153,210.223495 
	C26.575060,209.293304 26.662788,208.294754 27.078373,207.260406 
	C28.714365,207.444916 29.883682,207.696884 31.045351,207.963989 
	C31.037703,207.979111 31.008474,207.987061 31.169968,208.158463 
	C31.548796,208.556366 31.770452,208.778549 32.161331,209.284546 
	C35.378246,213.230072 37.651180,218.188309 43.908577,216.879196 
	C44.041573,216.031311 44.155628,215.549927 44.187489,215.063141 
	C44.512680,210.095215 47.026604,206.504852 50.116604,206.617188 
	C55.296299,206.805481 59.130680,211.181763 58.315853,216.460098 
	C57.757431,220.077499 59.433388,221.259750 62.418697,220.628128 
	C64.778946,220.128769 67.139961,219.028519 69.173004,217.695465 
	C76.612610,212.817307 80.002678,205.493439 81.315369,196.713852 
	C83.626839,194.428345 83.245300,192.597488 80.959084,190.724854 
	C80.963264,190.490326 80.964127,190.021194 81.164520,189.924759 
	C81.737801,189.417984 82.110687,189.007645 82.483566,188.597305 
	C81.319168,188.397751 80.154770,188.198196 79.002136,187.744781 
	C79.023659,187.321793 79.033409,187.152664 79.274803,186.781052 
	C80.663132,185.447449 81.819809,184.316315 83.264450,183.169540 
	C84.978249,182.074631 86.404076,180.995377 88.063614,179.864929 
	C88.849915,179.181015 89.402496,178.548309 90.158859,177.654724 
	C94.917282,173.262085 99.471931,169.130295 104.372612,165.074799 
	C107.479637,167.449081 110.240616,169.747070 112.697388,172.104431 
	C108.924385,173.443832 105.455597,174.723846 101.734573,175.994415 
	C101.314217,175.977417 101.146111,175.969879 100.823875,175.816589 
	C100.467773,175.472321 100.278259,175.262527 100.079697,175.027939 
	C100.058205,175.014389 100.042107,175.102875 99.890373,175.396133 
	C96.863739,178.470551 93.988846,181.251694 90.945755,184.152222 
	C90.531586,184.862976 90.285622,185.454361 90.003899,186.462570 
	C89.589005,190.609650 89.209869,194.339920 88.701614,198.157654 
	C88.395836,198.586380 88.219185,198.927643 88.042526,199.268906 
	C88.317032,199.204788 88.591537,199.140656 88.899872,199.458191 
	C90.038101,209.801559 94.382217,217.598068 104.028679,221.513657 
	C109.065445,223.558121 110.385490,222.380630 109.803986,217.060425 
	C109.292679,212.382355 111.318909,209.090561 115.198196,208.297119 
	C119.566788,207.403580 122.638817,209.497894 123.978279,214.282806 
	C125.353165,219.194260 127.837059,220.102997 131.688110,216.822678 
	C133.427216,215.341293 134.837433,213.413376 136.173080,211.529388 
	C141.461319,204.070084 140.089523,196.054810 138.374023,188.003235 
	C140.143753,187.999496 141.502411,187.996170 142.861069,187.992844 
	C144.749466,190.495163 146.637848,192.997498 148.760437,196.054352 
	C148.994492,197.033386 148.994354,197.457901 148.854462,198.143127 
	C148.470993,198.939224 148.227264,199.474609 147.990234,200.006836 
	C147.996918,200.003662 147.986618,199.991638 147.986618,199.991638 
	C146.546585,203.120895 144.583450,206.120361 143.768555,209.404724 
	C141.662994,217.890930 135.213867,222.194214 128.419754,226.134933 
	C125.211899,227.995560 124.208832,229.288574 126.305260,233.089294 
	C127.650780,235.528671 127.341370,239.549500 126.329765,242.337479 
	C125.826271,243.725113 122.094208,244.465240 119.788628,244.547653 
	C116.622017,244.660858 114.711937,242.858948 114.453117,239.288239 
	C114.020126,233.314819 112.544075,232.566895 106.152863,234.714691 
	C103.340179,233.108765 101.102242,231.563141 98.658943,229.764069 
	C95.242432,226.679474 91.917397,223.965591 88.849823,220.986603 
	C85.261772,217.502136 82.935989,217.386322 79.033424,220.779892 
	C76.801422,222.720779 74.581200,224.740585 72.091331,226.303802 
	C68.609909,228.489532 68.251640,230.213638 70.968712,233.731613 
	C74.832344,238.734100 77.721107,244.489517 81.165504,250.238068 
	C83.557144,252.713135 85.809654,254.873398 88.062164,257.033661 
	C88.086388,264.589661 87.530991,272.212738 88.393791,279.671753 
	C88.790176,283.098480 91.978378,286.197845 93.882614,289.456146 
	C95.212830,291.732239 96.512566,294.026154 97.915863,296.655212 
M86.523407,192.967758 
	C86.523407,192.967758 86.519600,192.996460 86.523407,192.967758 
z"/>
<path fill="#0D0E0E" opacity="1.000000" stroke="none" 
	d="
M142.863464,187.605499 
	C141.502411,187.996170 140.143753,187.999496 138.249542,187.684509 
	C134.198441,179.835831 128.352097,175.267075 120.224976,173.585876 
	C117.814102,173.087173 115.409225,172.559479 113.001595,172.045059 
	C110.240616,169.747070 107.479637,167.449081 104.563858,164.798706 
	C106.199928,161.279739 108.379372,158.265930 109.697571,154.913498 
	C112.142784,148.694839 110.461647,141.897079 106.166557,138.450256 
	C102.488129,135.498306 100.287209,136.078049 98.998932,140.555466 
	C97.761978,144.854553 95.548294,147.223343 90.692886,145.987823 
	C87.500450,145.175461 84.229630,144.671143 80.893486,143.693420 
	C79.105049,140.119766 77.717209,136.505280 72.948578,137.080963 
	C72.934601,137.050690 72.938431,136.984100 72.861603,136.865265 
	C72.479057,136.533813 72.173347,136.321228 71.617645,136.031677 
	C65.707436,135.979156 61.027637,140.552765 60.822880,146.100006 
	C60.491844,155.068237 64.196381,161.863846 70.695168,168.023453 
	C75.352699,172.437897 81.805672,175.804169 82.976486,183.185181 
	C81.819809,184.316315 80.663132,185.447449 79.260704,186.785416 
	C79.014954,186.992249 78.994576,186.982162 78.834671,186.817764 
	C78.459602,186.436234 78.240303,186.223358 77.870468,185.705139 
	C68.217468,167.495209 44.532204,167.248825 33.658554,181.962509 
	C27.743452,189.966537 29.490786,199.037582 31.053001,207.948853 
	C29.883682,207.696884 28.714365,207.444916 27.205296,207.060242 
	C23.991913,203.842438 22.259537,199.024567 16.388844,199.770645 
	C17.110725,197.275436 18.045126,195.176865 18.979530,193.078278 
	C20.873932,191.216217 23.665091,189.691483 24.513510,187.435974 
	C29.144054,175.125641 37.878273,167.914185 50.536453,165.216187 
	C56.620972,163.919327 58.684536,161.488083 56.128296,155.932556 
	C52.912640,148.943909 54.475445,142.191681 57.743992,136.813263 
	C65.736450,123.661613 71.220512,109.556328 76.487885,95.269798 
	C76.642273,94.851074 77.175735,94.572113 77.765350,94.114700 
	C77.998253,94.001404 78.020866,94.034889 78.063843,94.388023 
	C77.768623,98.922119 78.144409,103.324631 76.931244,107.234077 
	C74.921104,113.711777 71.853127,119.857925 69.299408,126.171501 
	C67.791534,129.899414 69.019997,131.791718 72.463097,132.102112 
	C75.279091,132.355972 78.030106,133.301544 80.818581,133.900116 
	C82.572914,134.276718 84.452927,135.135147 86.086319,134.812958 
	C91.555748,133.734085 96.945953,132.245773 102.346466,130.837463 
	C102.889374,130.695877 103.296341,130.032990 104.003464,129.399719 
	C102.037300,123.854782 100.027794,118.425850 98.196175,112.937546 
	C96.993973,109.335236 96.048752,105.647156 95.196426,101.850311 
	C95.264053,99.473991 95.123695,97.244835 94.990143,95.009087 
	C94.996941,95.002487 95.004509,94.989143 95.354874,94.980637 
	C96.173424,94.956329 96.641617,94.940536 97.109802,94.924744 
	C100.146736,104.332512 103.154213,113.750015 106.257393,123.135864 
	C106.651138,124.326797 107.558716,125.344627 108.206688,126.455231 
	C112.933739,134.557190 118.244110,142.501801 116.657776,152.603561 
	C116.224335,155.363663 115.212738,158.028015 114.594826,160.765289 
	C113.738335,164.559433 114.725647,166.396835 119.215500,166.823929 
	C131.082611,167.952789 141.192123,177.012070 142.863464,187.605499 
M28.524115,189.486771 
	C28.524115,189.486771 28.488382,189.495834 28.524115,189.486771 
z"/>
<path fill="#090C0B" opacity="1.000000" stroke="none" 
	d="
M94.983345,95.015686 
	C95.123695,97.244835 95.264053,99.473991 94.964226,101.619781 
	C93.471413,101.155045 92.214470,100.199066 91.400368,100.488533 
	C87.146011,102.001228 84.495453,99.778824 81.932381,96.558151 
	C80.810051,93.155983 79.747093,90.136993 78.684135,87.118004 
	C80.667374,75.958397 82.650620,64.798798 85.197586,53.309807 
	C87.187477,53.000923 88.613647,53.021423 90.039818,53.041924 
	C90.706535,56.369164 91.473145,59.680038 92.021408,63.026684 
	C93.722733,73.411819 95.341103,83.810539 97.050735,94.564369 
	C96.641617,94.940536 96.173424,94.956329 95.254326,94.923653 
	C94.655685,94.815727 94.507957,94.756264 94.360222,94.696800 
	C94.567932,94.803093 94.775635,94.909393 94.983345,95.015686 
z"/>
<path fill="#0C0F0E" opacity="1.000000" stroke="none" 
	d="
M90.025627,53.032684 
	C88.613647,53.021423 87.187477,53.000923 85.330872,52.975319 
	C85.191734,52.177139 85.483040,51.384068 85.939003,50.056046 
	C85.738991,48.681046 85.374321,47.840992 85.009651,47.000938 
	C84.844307,38.719578 84.735886,30.436495 84.485558,22.157703 
	C84.385666,18.853977 85.045700,15.473889 88.683929,15.675401 
	C90.195274,15.759109 92.701958,19.663229 92.686226,21.814907 
	C92.611794,31.994509 91.821815,42.168877 91.070801,52.596390 
	C90.526413,52.634216 90.250114,52.697105 90.025871,53.036331 
	C90.025871,53.036331 90.011436,53.023449 90.025627,53.032684 
z"/>
<path fill="#0D0E0E" opacity="1.000000" stroke="none" 
	d="
M88.258087,256.752594 
	C85.809654,254.873398 83.557144,252.713135 81.502731,250.174088 
	C84.479698,246.929184 87.399261,244.184311 90.001045,241.165558 
	C93.097946,237.572327 95.922012,233.743973 98.864304,230.017502 
	C101.102242,231.563141 103.340179,233.108765 105.847198,234.879120 
	C97.327400,239.828079 92.630623,247.934830 88.258087,256.752594 
z"/>
<path fill="#0D0E0E" opacity="1.000000" stroke="none" 
	d="
M90.366112,339.070068 
	C90.734085,336.867218 91.437057,334.826385 92.084320,332.483917 
	C95.136688,332.494873 98.346603,332.440582 101.312958,333.263855 
	C102.974991,333.725159 104.233620,335.639984 105.674011,336.899902 
	C104.199989,338.345215 102.750908,340.967438 101.246933,340.999298 
	C97.745720,341.073456 94.218056,339.900024 90.366112,339.070068 
z"/>
<path fill="#090C0B" opacity="1.000000" stroke="none" 
	d="
M148.994202,197.882431 
	C148.994354,197.457901 148.994492,197.033386 148.995758,196.289902 
	C153.740997,194.455887 155.994843,196.287064 156.627777,203.640991 
	C153.521683,202.383041 151.031876,201.374695 148.264343,200.178986 
	C147.986618,199.991638 147.996918,200.003662 148.153000,199.876495 
	C148.537460,199.127029 148.765839,198.504730 148.994202,197.882431 
z"/>
<path fill="#0C0F0E" opacity="1.000000" stroke="none" 
	d="
M18.648872,192.922607 
	C18.045126,195.176865 17.110725,197.275436 16.074326,199.712128 
	C14.888377,198.036118 13.804425,196.021988 12.720475,194.007874 
	C14.586390,193.594223 16.452303,193.180573 18.648872,192.922607 
z"/>
<path fill="#0C0F0E" opacity="1.000000" stroke="none" 
	d="
M60.579544,299.008301 
	C61.243187,300.184875 61.544250,301.419434 61.879208,302.919678 
	C59.106682,303.625641 56.300266,304.065887 53.493847,304.506165 
	C53.277641,303.817169 53.061440,303.128204 52.845234,302.439209 
	C55.302479,301.314911 57.759720,300.190613 60.579544,299.008301 
z"/>
<path fill="#0D0E0E" opacity="1.000000" stroke="none" 
	d="
M78.754677,87.443344 
	C79.747093,90.136993 80.810051,93.155983 81.663231,96.411713 
	C80.309250,95.777260 79.165054,94.906075 78.020866,94.034889 
	C78.020866,94.034889 77.998253,94.001404 77.986298,93.983971 
	C78.257965,91.900589 78.541588,89.834641 78.754677,87.443344 
z"/>
<path fill="#090C0B" opacity="1.000000" stroke="none" 
	d="
M85.075439,47.311348 
	C85.374321,47.840992 85.738991,48.681046 86.052162,49.760262 
	C85.714188,49.206867 85.427711,48.414310 85.075439,47.311348 
z"/>
<path fill="#0C0F0E" opacity="1.000000" stroke="none" 
	d="
M62.699814,296.066223 
	C62.412121,296.813843 61.923817,297.799255 61.197258,298.871887 
	C61.472401,298.074066 61.985802,297.189026 62.699814,296.066223 
z"/>
<path fill="#090C0B" opacity="1.000000" stroke="none" 
	d="
M90.269379,53.023056 
	C90.250114,52.697105 90.526413,52.634216 90.927391,52.916588 
	C91.000031,52.985516 90.512894,53.009777 90.269379,53.023056 
z"/>
<path fill="#000000" opacity="1.000000" stroke="none" 
	d="
M69.281258,316.168030 
	C65.363777,307.717896 70.789963,301.724091 74.099380,295.160492 
	C75.504036,292.374573 76.207825,289.203979 77.808640,286.558258 
	C79.055122,284.498077 80.962616,281.937561 82.999329,281.479279 
	C85.663361,280.879883 86.856789,283.462524 87.388802,286.290253 
	C88.052834,289.819611 89.498138,293.201965 90.789040,296.869507 
	C92.184517,300.705017 93.656761,304.255585 94.555573,307.945801 
	C96.426735,315.628174 87.503891,324.409210 79.873489,322.091644 
	C76.193016,320.973785 72.977699,318.324402 69.281258,316.168030 
M84.471519,283.511536 
	C84.471519,283.511536 84.519699,283.496033 84.471519,283.511536 
z"/>
<path fill="#000000" opacity="1.000000" stroke="none" 
	d="
M92.232101,390.204712 
	C90.113091,393.829315 88.662582,399.054169 85.760994,400.049744 
	C80.590340,401.823853 74.503418,401.395447 70.427368,395.937073 
	C67.602142,392.153687 67.694183,388.331940 69.345909,384.166718 
	C71.784035,378.018433 77.426109,378.060760 83.909447,379.083527 
	C89.029190,379.891205 92.327675,384.632751 92.232101,390.204712 
z"/>
<path fill="#000000" opacity="1.000000" stroke="none" 
	d="
M112.697388,172.104431 
	C115.409225,172.559479 117.814102,173.087173 120.224976,173.585876 
	C128.352097,175.267075 134.198441,179.835831 137.838470,187.684937 
	C140.089523,196.054810 141.461319,204.070084 136.173080,211.529388 
	C134.837433,213.413376 133.427216,215.341293 131.688110,216.822678 
	C127.837059,220.102997 125.353165,219.194260 123.978279,214.282806 
	C122.638817,209.497894 119.566788,207.403580 115.198196,208.297119 
	C111.318909,209.090561 109.292679,212.382355 109.803986,217.060425 
	C110.385490,222.380630 109.065445,223.558121 104.028679,221.513657 
	C94.382217,217.598068 90.038101,209.801559 88.893684,199.206177 
	C88.846024,198.405045 88.838379,198.237625 88.830727,198.070190 
	C89.209869,194.339920 89.589005,190.609650 90.153366,186.219009 
	C90.597031,185.050034 90.855484,184.541443 91.113937,184.032852 
	C93.988846,181.251694 96.863739,178.470551 99.902481,175.378189 
	C100.066330,175.066986 100.101196,175.041489 100.101196,175.041489 
	C100.278259,175.262527 100.467773,175.472321 100.947395,175.854401 
	C101.225044,176.037979 101.607292,176.063385 101.607292,176.063385 
	C101.607292,176.063385 101.986809,176.003860 101.986809,176.003860 
	C105.455597,174.723846 108.924385,173.443832 112.697388,172.104431 
z"/>
<path fill="#000000" opacity="1.000000" stroke="none" 
	d="
M31.045353,207.963989 
	C29.490786,199.037582 27.743452,189.966537 33.658554,181.962509 
	C44.532204,167.248825 68.217468,167.495209 78.026215,185.873169 
	C78.542183,186.569977 78.764252,186.780426 78.994576,186.982162 
	C78.994576,186.982162 79.014954,186.992249 79.029053,186.987885 
	C79.033409,187.152664 79.023659,187.321793 79.158035,187.984146 
	C79.856155,188.991959 80.410149,189.506577 80.964127,190.021194 
	C80.964127,190.021194 80.963264,190.490326 80.862831,191.039429 
	C80.880020,193.364609 80.997635,195.140686 81.115250,196.916763 
	C80.002678,205.493439 76.612610,212.817307 69.173004,217.695465 
	C67.139961,219.028519 64.778946,220.128769 62.418697,220.628128 
	C59.433388,221.259750 57.757431,220.077499 58.315853,216.460098 
	C59.130680,211.181763 55.296299,206.805481 50.116604,206.617188 
	C47.026604,206.504852 44.512680,210.095215 44.187489,215.063141 
	C44.155628,215.549927 44.041573,216.031311 43.908577,216.879196 
	C37.651180,218.188309 35.378246,213.230072 32.005920,209.107605 
	C31.472084,208.411438 31.246370,208.192947 31.008474,207.987061 
	C31.008474,207.987061 31.037703,207.979111 31.045353,207.963989 
z"/>
<path fill="#000000" opacity="1.000000" stroke="none" 
	d="
M83.264450,183.169540 
	C81.805672,175.804169 75.352699,172.437897 70.695168,168.023453 
	C64.196381,161.863846 60.491844,155.068237 60.822880,146.100006 
	C61.027637,140.552765 65.707436,135.979156 71.788345,136.188553 
	C72.436836,136.629547 72.679962,136.816772 72.938431,136.984100 
	C72.938431,136.984100 72.934601,137.050690 72.941299,137.465912 
	C73.233932,139.630981 73.519875,141.380814 73.989456,143.282654 
	C74.415474,143.639069 74.654564,143.847275 75.091888,144.277740 
	C77.399834,146.856171 79.270988,146.346527 80.993912,144.028870 
	C84.229630,144.671143 87.500450,145.175461 90.692886,145.987823 
	C95.548294,147.223343 97.761978,144.854553 98.998932,140.555466 
	C100.287209,136.078049 102.488129,135.498306 106.166557,138.450256 
	C110.461647,141.897079 112.142784,148.694839 109.697571,154.913498 
	C108.379372,158.265930 106.199928,161.279739 104.217819,164.722412 
	C99.471931,169.130295 94.917282,173.262085 89.936813,177.843903 
	C88.950630,178.834671 88.390266,179.375381 87.829910,179.916107 
	C86.404076,180.995377 84.978249,182.074631 83.264450,183.169540 
z"/>
<path fill="#000000" opacity="1.000000" stroke="none" 
	d="
M98.658936,229.764069 
	C95.922012,233.743973 93.097946,237.572327 90.001045,241.165558 
	C87.399261,244.184311 84.479698,246.929184 81.363602,249.859283 
	C77.721107,244.489517 74.832344,238.734100 70.968712,233.731613 
	C68.251640,230.213638 68.609909,228.489532 72.091331,226.303802 
	C74.581200,224.740585 76.801422,222.720779 79.033424,220.779892 
	C82.935989,217.386322 85.261772,217.502136 88.849823,220.986603 
	C91.917397,223.965591 95.242432,226.679474 98.658936,229.764069 
z"/>
<path fill="#0D0E0E" opacity="1.000000" stroke="none" 
	d="
M81.315369,196.713852 
	C80.997635,195.140686 80.880020,193.364609 80.858650,191.273956 
	C83.245300,192.597488 83.626839,194.428345 81.315369,196.713852 
z"/>
<path fill="#0D0E0E" opacity="1.000000" stroke="none" 
	d="
M81.164520,189.924759 
	C80.410149,189.506577 79.856155,188.991959 79.146271,188.238007 
	C80.154770,188.198196 81.319168,188.397751 82.483566,188.597305 
	C82.110687,189.007645 81.737801,189.417984 81.164520,189.924759 
z"/>
<path fill="#0D0E0E" opacity="1.000000" stroke="none" 
	d="
M88.701614,198.157654 
	C88.838379,198.237625 88.846024,198.405045 88.859863,198.824493 
	C88.591537,199.140656 88.317032,199.204788 88.042526,199.268906 
	C88.219185,198.927643 88.395836,198.586380 88.701614,198.157654 
z"/>
<path fill="#000000" opacity="1.000000" stroke="none" 
	d="
M148.854462,198.143127 
	C148.765839,198.504730 148.537460,199.127029 148.146301,199.879669 
	C148.227264,199.474609 148.470993,198.939224 148.854462,198.143127 
z"/>
<path fill="#0D0E0E" opacity="1.000000" stroke="none" 
	d="
M90.945747,184.152222 
	C90.855484,184.541443 90.597031,185.050034 90.189117,185.802200 
	C90.285622,185.454361 90.531586,184.862976 90.945747,184.152222 
z"/>
<path fill="#0D0E0E" opacity="1.000000" stroke="none" 
	d="
M88.063614,179.864929 
	C88.390266,179.375381 88.950630,178.834671 89.733032,178.104767 
	C89.402496,178.548309 88.849915,179.181015 88.063614,179.864929 
z"/>
<path fill="#0D0E0E" opacity="1.000000" stroke="none" 
	d="
M86.521500,192.982117 
	C86.519600,192.996460 86.523407,192.967758 86.521500,192.982117 
z"/>
<path fill="#0D0E0E" opacity="1.000000" stroke="none" 
	d="
M31.169968,208.158463 
	C31.246370,208.192947 31.472084,208.411438 31.841026,208.819458 
	C31.770452,208.778549 31.548796,208.556366 31.169968,208.158463 
z"/>
<path fill="#0D0E0E" opacity="1.000000" stroke="none" 
	d="
M101.734573,175.994415 
	C101.986809,176.003860 101.607292,176.063385 101.607292,176.063385 
	C101.607292,176.063385 101.225044,176.037979 101.101524,176.000153 
	C101.146111,175.969879 101.314217,175.977417 101.734573,175.994415 
z"/>
<path fill="#0D0E0E" opacity="1.000000" stroke="none" 
	d="
M100.054214,175.084930 
	C100.042107,175.102875 100.058205,175.014389 100.079697,175.027939 
	C100.101196,175.041489 100.066330,175.066986 100.054214,175.084930 
z"/>
<path fill="#000000" opacity="1.000000" stroke="none" 
	d="
M78.063843,94.388023 
	C79.165054,94.906075 80.309250,95.777260 81.722595,96.794884 
	C84.495453,99.778824 87.146011,102.001228 91.400368,100.488533 
	C92.214470,100.199066 93.471413,101.155045 94.756248,101.766953 
	C96.048752,105.647156 96.993973,109.335236 98.196175,112.937546 
	C100.027794,118.425850 102.037300,123.854782 104.003464,129.399719 
	C103.296341,130.032990 102.889374,130.695877 102.346466,130.837463 
	C96.945953,132.245773 91.555748,133.734085 86.086319,134.812958 
	C84.452927,135.135147 82.572914,134.276718 80.818581,133.900116 
	C78.030106,133.301544 75.279091,132.355972 72.463097,132.102112 
	C69.019997,131.791718 67.791534,129.899414 69.299408,126.171501 
	C71.853127,119.857925 74.921104,113.711777 76.931244,107.234077 
	C78.144409,103.324631 77.768623,98.922119 78.063843,94.388023 
z"/>
<path fill="#0C0F0E" opacity="1.000000" stroke="none" 
	d="
M80.893486,143.693420 
	C79.270988,146.346527 77.399834,146.856171 75.140060,144.171936 
	C74.593056,143.608688 74.199440,143.369675 73.805824,143.130661 
	C73.519875,141.380814 73.233932,139.630981 72.955276,137.496185 
	C77.717209,136.505280 79.105049,140.119766 80.893486,143.693420 
M78.482399,142.517990 
	C78.482399,142.517990 78.513405,142.514862 78.482399,142.517990 
z"/>
<path fill="#0C0F0E" opacity="1.000000" stroke="none" 
	d="
M72.861603,136.865265 
	C72.679962,136.816772 72.436836,136.629547 72.038338,136.265533 
	C72.173347,136.321228 72.479057,136.533813 72.861603,136.865265 
z"/>
<path fill="#000000" opacity="1.000000" stroke="none" 
	d="
M28.506248,189.491302 
	C28.488382,189.495834 28.524115,189.486771 28.506248,189.491302 
z"/>
<path fill="#0C0E0D" opacity="1.000000" stroke="none" 
	d="
M78.834671,186.817764 
	C78.764252,186.780426 78.542183,186.569977 78.172607,186.182770 
	C78.240303,186.223358 78.459602,186.436234 78.834671,186.817764 
z"/>
<path fill="#0D0E0E" opacity="1.000000" stroke="none" 
	d="
M94.990143,95.009087 
	C94.775635,94.909393 94.567932,94.803093 94.360222,94.696800 
	C94.507957,94.756264 94.655685,94.815727 94.903961,94.932159 
	C95.004509,94.989143 94.996941,95.002487 94.990143,95.009087 
z"/>
<path fill="#0C0E0D" opacity="1.000000" stroke="none" 
	d="
M84.495605,283.503784 
	C84.519699,283.496033 84.471519,283.511536 84.495605,283.503784 
z"/>
<path fill="#0D0E0E" opacity="1.000000" stroke="none" 
	d="
M73.989456,143.282654 
	C74.199440,143.369675 74.593056,143.608688 74.938515,143.953491 
	C74.654564,143.847275 74.415474,143.639069 73.989456,143.282654 
z"/>
<path fill="#0D0E0E" opacity="1.000000" stroke="none" 
	d="
M78.497902,142.516418 
	C78.513405,142.514862 78.482399,142.517990 78.497902,142.516418 
z"/>
</svg>